<svg width="315" height="59" viewBox="0 0 315 59" fill="none" xmlns="http://www.w3.org/2000/svg">
<g clip-path="url(#clip0_314_88)">
<path d="M21.3018 9.19034C20.6575 9.46291 20.0523 9.4777 19.486 9.2347C18.9239 8.98998 18.5091 8.55154 18.2417 7.91938C17.9537 7.23859 17.9315 6.61018 18.1751 6.03415C18.4187 5.45811 18.889 5.02267 19.586 4.72781C19.9548 4.57181 20.3328 4.47161 20.7201 4.42721L21.2622 5.43764L21.2526 5.44886C21.0522 5.31388 20.8281 5.24148 20.5803 5.23165C20.3365 5.22011 20.0931 5.26577 19.8499 5.36862C19.4245 5.54862 19.1464 5.82869 19.0158 6.20881C18.8875 6.58317 18.9228 7.00539 19.1216 7.47546C19.3239 7.95363 19.5982 8.29146 19.9445 8.48894C20.2949 8.68471 20.6767 8.69517 21.0901 8.52031C21.4021 8.38831 21.6415 8.22015 21.8083 8.01583C21.9733 7.80746 22.0938 7.55583 22.1697 7.26096L22.1844 7.26189L22.4988 8.41165C22.1263 8.75078 21.7273 9.01035 21.3018 9.19034Z" fill="white"/>
<path d="M27.7453 6.47703C27.8618 6.70038 27.995 6.90133 28.145 7.07986C28.2944 7.25404 28.4251 7.37533 28.5372 7.44374L28.539 7.45681L27.0625 7.66827L27.0606 7.6552C27.1147 7.59856 27.1349 7.50677 27.1212 7.37983C27.1112 7.24792 27.0526 7.07184 26.9455 6.8516L26.8643 6.70322L25.1787 6.94462L25.1423 7.10984C25.102 7.35564 25.093 7.54139 25.1155 7.66708C25.1373 7.78841 25.1802 7.87115 25.2444 7.91531L25.2462 7.92838L23.8742 8.12486L23.8723 8.1118C24.0925 7.84913 24.2533 7.46608 24.3545 6.96264L24.9033 4.1371C24.9262 3.92491 24.9137 3.76001 24.8658 3.64242C24.8222 3.52421 24.759 3.43992 24.6762 3.38954L24.6743 3.37648L26.4057 3.12853L26.4076 3.1416C26.3435 3.22189 26.3046 3.32302 26.291 3.44498C26.2773 3.56695 26.3135 3.72624 26.3994 3.92284L27.7453 6.47703ZM25.6155 4.12845C25.6237 4.46509 25.5669 4.93771 25.4451 5.54632L25.3026 6.27347L26.557 6.09383L26.2161 5.43591C25.9166 4.86541 25.7251 4.42834 25.6416 4.12471L25.6155 4.12845Z" fill="white"/>
<path d="M29.8466 7.47955L29.8482 7.46644C29.952 7.41219 30.0486 7.30614 30.1381 7.14829C30.2275 6.99045 30.2868 6.78698 30.3161 6.5379L30.6203 3.9487C30.647 3.72146 30.6337 3.5139 30.5804 3.326C30.5316 3.13862 30.4648 3.00895 30.3803 2.93699L30.3818 2.92388L32.2827 3.14719C32.9775 3.22881 33.5065 3.49695 33.8695 3.95161C34.2374 4.40242 34.3798 4.98178 34.2966 5.68972C34.2109 6.4195 33.9459 6.95986 33.5015 7.31081C33.0576 7.6574 32.438 7.78397 31.6427 7.69054L29.8466 7.47955ZM31.1749 6.97769L31.7845 7.0493C32.2215 7.10064 32.5722 7.00007 32.8366 6.7476C33.1011 6.49513 33.2644 6.10452 33.3265 5.57575C33.3917 5.02077 33.3261 4.59883 33.1297 4.30994C32.9337 4.01668 32.602 3.84258 32.1344 3.78765L31.5576 3.71989L31.1749 6.97769Z" fill="white"/>
<path d="M35.7086 8.41368L35.7136 8.40148C35.8283 8.37735 35.95 8.3014 36.0788 8.17364C36.2076 8.04589 36.3198 7.86607 36.4154 7.6342L37.4088 5.2239C37.496 5.01237 37.5394 4.80895 37.539 4.61366C37.5426 4.42005 37.5135 4.27716 37.4515 4.18499L37.4566 4.17279L39.2262 4.90216C39.873 5.16876 40.3096 5.57002 40.5361 6.10596C40.7683 6.6395 40.7486 7.23578 40.4769 7.8948C40.1969 8.57415 39.7955 9.02263 39.2728 9.24024C38.7517 9.45378 38.1209 9.40797 37.3806 9.10281L35.7086 8.41368ZM37.1231 8.28996L37.6906 8.52386C38.0974 8.69153 38.4622 8.68963 38.7851 8.51814C39.1081 8.34665 39.3709 8.0148 39.5738 7.52257C39.7868 7.00593 39.8378 6.58198 39.7268 6.25071C39.6176 5.91537 39.3453 5.658 38.91 5.47859L38.3731 5.25727L37.1231 8.28996Z" fill="white"/>
<path d="M5.2753 38.3988L5.2842 38.3866C5.6334 38.4801 5.98671 38.4493 6.34411 38.294L8.75947 37.2369C8.95421 37.151 9.13027 37.034 9.28764 36.8859C9.44501 36.7379 9.52948 36.5819 9.54104 36.418L9.5562 36.4177L10.2724 37.7953C10.1203 37.7674 9.95454 37.8943 9.77502 38.1761L9.062 39.3034C8.82136 39.6832 8.55514 39.9795 8.26333 40.1924L8.27585 40.2164C8.55576 40.1473 8.96377 40.1237 9.49985 40.1455L10.847 40.194C11.1687 40.2051 11.3608 40.1434 11.4233 40.009L12.1458 41.3986L12.1369 41.4109C12.0041 41.322 11.8258 41.2975 11.602 41.3375C11.3822 41.3753 11.1832 41.4482 11.005 41.5561L8.76793 42.9561C8.40763 43.1842 8.17839 43.4536 8.08019 43.7645L8.06503 43.7647L7.34883 42.3872L7.35774 42.3749C7.44724 42.4099 7.56859 42.413 7.72179 42.3843C7.87498 42.3556 8.03668 42.2894 8.20688 42.1856L9.40206 41.4419C9.68231 41.2657 10.0335 41.0984 10.4555 40.9401L10.443 40.916C10.0519 40.9869 9.63076 41.0097 9.17953 40.9845L7.70145 40.9048C7.33315 40.8823 7.04153 40.9142 6.82657 41.0005L6.80155 40.9523C6.9955 40.8158 7.18399 40.5905 7.36704 40.2763L8.13783 38.9662C8.34462 38.6192 8.60844 38.2987 8.92928 38.0045L8.91677 37.9805C8.57268 38.2103 8.23404 38.4016 7.90086 38.5545L6.62123 39.1357C6.24795 39.3094 6.03371 39.5048 5.97851 39.722L5.96335 39.7223L5.2753 38.3988Z" fill="white"/>
<path d="M12.9996 47.5582C12.8839 47.7896 12.797 48.0216 12.7388 48.2539C12.6839 48.4832 12.6618 48.665 12.6724 48.7995L12.6626 48.8089L11.597 47.7078L11.6068 47.6983C11.6865 47.7092 11.7751 47.6707 11.8724 47.5828C11.9761 47.495 12.0874 47.3402 12.2061 47.1184L12.2806 46.9614L11.0641 45.7044L10.9048 45.7737C10.6759 45.8882 10.516 45.9927 10.4249 46.0871C10.3371 46.1783 10.2942 46.2639 10.296 46.3439L10.2863 46.3533L9.29618 45.3302L9.30592 45.3207C9.65713 45.3457 10.0727 45.2486 10.5526 45.0295L13.2341 43.7837C13.4245 43.6749 13.5542 43.5652 13.6231 43.4544C13.6952 43.3469 13.7273 43.2436 13.7193 43.1444L13.7291 43.1349L14.9785 44.4261L14.9688 44.4355C14.8634 44.4306 14.7558 44.4592 14.6461 44.5213C14.5364 44.5834 14.4256 44.7095 14.3138 44.8994L12.9996 47.5582ZM13.6704 44.371C13.3953 44.5807 12.9678 44.8182 12.3881 45.0836L11.6972 45.4031L12.6025 46.3386L12.9445 45.6585C13.2387 45.0656 13.4869 44.6429 13.6893 44.3905L13.6704 44.371Z" fill="white"/>
<path d="M14.3327 50.1044L14.3396 50.0927C14.4598 50.0853 14.5948 50.0263 14.7448 49.9157C14.8948 49.8051 15.0357 49.6391 15.1675 49.4177L16.5545 47.0872C16.6562 46.9163 16.7261 46.737 16.7642 46.5493C16.8046 46.3577 16.7951 46.1969 16.7357 46.0669L16.7427 46.0552L18.0652 46.8423C18.0006 46.9775 17.9692 47.2113 17.9712 47.5438L17.971 49.4531C17.97 49.826 17.9198 50.3168 17.8204 50.9257L17.8437 50.9396C17.992 50.5491 18.199 50.1306 18.4648 49.6839L19.089 48.6352C19.2231 48.4099 19.3049 48.2061 19.3345 48.0238C19.368 47.8439 19.3582 47.7013 19.3051 47.5961L19.312 47.5844L20.6579 48.3854L20.6509 48.3971C20.5331 48.4006 20.3981 48.4596 20.2457 48.5741C20.0958 48.6847 19.9549 48.8507 19.8231 49.0721L18.4534 51.3734C18.3216 51.5948 18.2418 51.7998 18.2137 51.9882C18.188 52.1728 18.2017 52.3177 18.2548 52.423L18.2479 52.4346L17.0186 51.7029C17.0481 51.4943 17.0608 51.252 17.0567 50.9761L17.0293 49.153C17.0196 48.6212 17.0812 48.0582 17.214 47.464L17.1906 47.4501C17.0132 47.9073 16.78 48.3787 16.491 48.8642L15.9016 49.8546C15.7675 50.0799 15.6837 50.2825 15.6502 50.4625C15.6206 50.6448 15.6324 50.7885 15.6855 50.8937L15.6785 50.9054L14.3327 50.1044Z" fill="white"/>
<path d="M22.8684 54.1283C22.1761 53.9352 21.6802 53.5598 21.3806 53.0023C21.0853 52.4459 21.0324 51.8282 21.2219 51.149C21.426 50.4176 21.8102 49.8983 22.3746 49.5912C22.9389 49.2841 23.5955 49.235 24.3443 49.4439C24.7405 49.5545 25.1085 49.7158 25.4482 49.9279L25.2374 51.0868L25.2225 51.0897C25.1478 50.853 25.014 50.6514 24.8211 50.485C24.6326 50.3198 24.4077 50.2007 24.1465 50.1278C23.6893 50.0003 23.2867 50.0475 22.9385 50.2694C22.5959 50.4882 22.3541 50.8502 22.2132 51.3552C22.0699 51.8689 22.0742 52.3159 22.2262 52.6962C22.3825 53.0777 22.6828 53.3304 23.1268 53.4543C23.4621 53.5478 23.7621 53.5658 24.0268 53.5083C24.2928 53.4465 24.5506 53.3213 24.8003 53.1329L24.8115 53.143L24.3286 54.2683C23.8123 54.3025 23.3255 54.2559 22.8684 54.1283Z" fill="white"/>
<path d="M31.2717 50.1799C31.1712 50.246 31.0834 50.3644 31.0083 50.535C30.9332 50.7055 30.8935 50.9196 30.8893 51.1772L30.8454 53.8821C30.8414 54.1307 30.8741 54.3414 30.9437 54.5143C31.0133 54.6827 31.0973 54.7993 31.1957 54.8642L31.1954 54.8778L29.5549 54.8512L29.5551 54.8376C29.6466 54.7713 29.7276 54.6551 29.7981 54.4889C29.8732 54.3184 29.9127 54.1111 29.9167 53.867L29.936 52.6807L28.1327 52.6514L28.1139 53.8106C28.1097 54.0682 28.1401 54.2835 28.2051 54.4563C28.2701 54.6291 28.3495 54.7502 28.4433 54.8196L28.4431 54.8331L26.8026 54.8065L26.8028 54.7929C26.9033 54.7267 26.9911 54.6084 27.0662 54.4378C27.1413 54.2673 27.181 54.0532 27.1852 53.7956L27.2286 51.1178C27.2329 50.8557 27.2002 50.6404 27.1306 50.472C27.0611 50.2991 26.9772 50.178 26.8788 50.1086L26.8791 50.095L28.5196 50.1216L28.5194 50.1352C28.4279 50.2015 28.3446 50.3222 28.2694 50.4973C28.1988 50.6679 28.1615 50.8798 28.1574 51.1329L28.1437 51.9735L29.947 52.0028L29.9606 51.1622C29.9648 50.9046 29.9344 50.6893 29.8694 50.5165C29.8044 50.3437 29.725 50.2226 29.6312 50.1532L29.6314 50.1397L31.2719 50.1663L31.2717 50.1799Z" fill="white"/>
<path d="M36.8047 52.4371L36.8195 52.4405L36.9551 53.7962C36.7314 53.8136 36.4592 53.8615 36.1387 53.9397L33.8136 54.5074L33.8104 54.4942C33.8909 54.4047 33.9459 54.268 33.9755 54.084C34.005 53.9 33.9892 53.6828 33.9281 53.4325L33.2929 50.8309C33.2307 50.5762 33.1447 50.3762 33.0348 50.2309C32.9238 50.0812 32.8119 49.9852 32.6992 49.9429L32.696 49.9297L35.0606 49.3524C35.3724 49.2763 35.6008 49.2019 35.7459 49.1293L36.1457 50.2809L36.1341 50.2907C35.8967 50.0044 35.5124 49.9261 34.9811 50.0558L34.1116 50.2681L34.3947 51.4273L34.8952 51.3051C35.3519 51.1936 35.6907 51.0946 35.9115 51.0081L35.9906 52.1613L35.9775 52.1645C35.8045 51.9136 35.5314 51.8337 35.1582 51.9248L34.5522 52.0728L34.9141 53.5547L35.632 53.3795C36.2248 53.2347 36.6157 52.9206 36.8047 52.4371Z" fill="white"/>
<path d="M40.6503 52.308C40.1157 52.5832 39.6666 52.705 39.3028 52.6735L38.6935 51.7043L38.7026 51.6922C39.2556 51.9629 39.7801 51.9676 40.2762 51.7064C40.7399 51.4613 40.8844 51.1626 40.7097 50.8103C40.6595 50.7091 40.595 50.63 40.5164 50.5732C40.4418 50.5143 40.3459 50.4786 40.2287 50.4661C40.1135 50.4475 40.0135 50.4391 39.9286 50.4409C39.8417 50.4386 39.7173 50.4422 39.5556 50.4518C39.3857 50.4654 39.2533 50.4731 39.1583 50.4748C39.0673 50.4745 38.9441 50.465 38.7885 50.4463C38.6329 50.4276 38.5046 50.3928 38.4037 50.342C38.3008 50.287 38.1929 50.2069 38.0801 50.1014C37.9652 49.9918 37.8676 49.8561 37.7873 49.6941C37.6286 49.3742 37.6236 49.0387 37.7723 48.6874C37.9231 48.3301 38.2232 48.04 38.6727 47.8171C38.9804 47.6644 39.3194 47.5493 39.6895 47.4717L40.2625 48.4286L40.2504 48.4347C39.8711 48.2091 39.4689 48.2017 39.0437 48.4126C38.578 48.6435 38.4225 48.9149 38.5771 49.2267C38.6193 49.3117 38.6727 49.3786 38.7372 49.4273C38.8058 49.474 38.8946 49.5057 39.0037 49.5222C39.1149 49.5327 39.2088 49.539 39.2856 49.5413C39.3645 49.5375 39.4818 49.5298 39.6374 49.5182C39.785 49.5106 39.8982 49.5049 39.9771 49.5011C40.0559 49.4973 40.1661 49.5007 40.3076 49.5112C40.4511 49.5157 40.5693 49.5353 40.6621 49.57C40.755 49.6047 40.8569 49.6525 40.9679 49.7135C41.0809 49.7684 41.1817 49.8496 41.2703 49.957C41.363 50.0625 41.4455 50.188 41.5178 50.3338C41.6925 50.6861 41.7085 51.044 41.5658 51.4074C41.4272 51.7687 41.122 52.0689 40.6503 52.308Z" fill="white"/>
<path d="M43.6123 44.487L44.4748 45.3863L44.4685 45.4C44.3147 45.3375 44.1464 45.3183 43.9635 45.3425C43.7842 45.3639 43.6184 45.4351 43.4663 45.5561L43.0684 45.8726L44.9044 48.1808C45.076 48.3965 45.2496 48.553 45.4251 48.6502C45.6013 48.7411 45.7551 48.7747 45.8865 48.7511L45.8949 48.7617L44.5206 49.8548L44.5122 49.8442C44.5577 49.7271 44.5546 49.5708 44.5029 49.3751C44.4519 49.1731 44.3434 48.9677 44.1774 48.759L42.3414 46.4508L41.9382 46.7716C41.7861 46.8926 41.6777 47.0395 41.6129 47.2123C41.5518 47.3822 41.5344 47.5491 41.5607 47.713L41.5459 47.7161L40.8637 46.6733C41.102 46.53 41.3556 46.3514 41.6244 46.1375L42.9191 45.1077C43.1879 44.8939 43.419 44.687 43.6123 44.487Z" fill="white"/>
<path d="M49.3611 43.0439L49.3748 43.0375L50.311 44.0274C50.1446 44.178 49.9585 44.3822 49.7527 44.6401L48.2598 46.5108L48.2492 46.5024C48.2583 46.3824 48.2182 46.2405 48.1291 46.0769C48.0399 45.9132 47.8947 45.751 47.6933 45.5903L45.6 43.9199C45.3951 43.7564 45.2047 43.6507 45.0289 43.6029C44.8495 43.5523 44.7023 43.5447 44.5873 43.5802L44.5767 43.5717L46.0949 41.6692C46.2951 41.4184 46.4304 41.2198 46.5008 41.0736L47.5213 41.7405L47.5181 41.7554C47.1552 41.6739 46.8032 41.8469 46.462 42.2744L45.9038 42.974L46.8365 43.7183L47.1579 43.3155C47.4511 42.9481 47.6587 42.6626 47.7805 42.4592L48.5482 43.3233L48.5397 43.3339C48.2495 43.2411 47.9846 43.3448 47.7449 43.6451L47.3559 44.1327L48.5482 45.0842L49.0092 44.5066C49.3898 44.0296 49.5071 43.5421 49.3611 43.0439Z" fill="white"/>
<path d="M52.2702 38.3554C52.762 38.2957 53.1258 38.1414 53.3618 37.8924L53.3741 37.8981L53.0134 39.2636C52.7436 39.2324 52.4675 39.2307 52.1852 39.2585L50.1126 39.4506L50.2503 39.1557C50.5065 38.6069 50.3807 38.2139 49.8729 37.9768C49.6476 37.8716 49.436 37.8601 49.238 37.9422C49.04 38.0244 48.8819 38.1975 48.7636 38.4615L48.5689 38.8944L51.3334 40.1852C51.5546 40.2885 51.7573 40.3458 51.9416 40.357C52.1218 40.3663 52.2618 40.3444 52.3615 40.2912L52.3737 40.2969L51.6824 41.7774L51.6701 41.7717C51.6549 41.6548 51.5847 41.5273 51.4597 41.3891C51.3306 41.249 51.1493 41.1244 50.9158 41.0154L48.4647 39.8708C48.2394 39.7657 48.0357 39.7105 47.8536 39.7052C47.6674 39.6981 47.5246 39.7262 47.4251 39.7895L47.4129 39.7838L48.2275 38.0391C48.4551 37.5517 48.7497 37.2253 49.1112 37.0599C49.4687 36.8926 49.8481 36.9027 50.2495 37.0901C50.8802 37.3846 51.1556 37.8524 51.0757 38.4936L52.2702 38.3554Z" fill="white"/>
<path d="M29.33 57.43C44.8492 57.43 57.43 44.8492 57.43 29.33C57.43 13.8108 44.8492 1.22998 29.33 1.22998C13.8108 1.22998 1.22998 13.8108 1.22998 29.33C1.22998 44.8492 13.8108 57.43 29.33 57.43Z" stroke="white" stroke-width="0.7" stroke-miterlimit="10"/>
<path d="M29.3299 58.4799C45.429 58.4799 58.4799 45.429 58.4799 29.3299C58.4799 13.2308 45.429 0.179932 29.3299 0.179932C13.2308 0.179932 0.179932 13.2308 0.179932 29.3299C0.179932 45.429 13.2308 58.4799 29.3299 58.4799Z" stroke="white" stroke-width="0.35" stroke-miterlimit="10"/>
<mask id="mask0_314_88" style="mask-type:luminance" maskUnits="userSpaceOnUse" x="1" y="1" width="57" height="57">
<path d="M29.33 1.22998C13.81 1.22998 1.22998 13.81 1.22998 29.33C1.22998 44.85 13.81 57.43 29.33 57.43C44.85 57.43 57.43 44.85 57.43 29.33C57.43 13.81 44.84 1.22998 29.33 1.22998ZM29.33 48.64C18.66 48.64 10.01 39.99 10.01 29.32C10.01 18.65 18.66 10.01 29.33 10.01C40 10.01 48.65 18.66 48.65 29.33C48.65 40 40 48.65 29.33 48.65V48.64Z" fill="white"/>
</mask>
<g mask="url(#mask0_314_88)">
<path d="M48.8901 14.6701C48.7601 20.4801 43.9901 24.7101 38.6501 23.9301C36.9101 23.6701 36.4101 22.7501 36.3101 21.2501C36.0201 16.6001 39.8601 12.3101 44.6501 11.9601C45.1401 11.9201 45.6401 11.9201 46.1401 11.9201C48.7301 11.9001 48.9501 12.1201 48.9001 14.6701H48.8901Z" fill="#EEEEEE"/>
<path d="M9.75996 14.6701C9.88996 20.4801 14.66 24.7101 20 23.9301C21.74 23.6701 22.24 22.7501 22.34 21.2501C22.63 16.6001 18.79 12.3101 14 11.9601C13.51 11.9201 13.01 11.9201 12.51 11.9201C9.91996 11.9001 9.69996 12.1201 9.74996 14.6701H9.75996Z" fill="#EEEEEE"/>
<path d="M41.0399 30.8601C38.6099 30.8201 36.4699 30.0101 34.5899 28.4601C33.9199 27.9101 33.7099 27.3601 33.9999 26.4701C35.3099 22.4501 37.8099 19.6201 41.9799 18.5801C45.2899 17.7601 48.5199 18.3701 51.6799 19.5301C54.0899 20.4201 54.1099 20.4101 52.8599 22.6201C51.1199 25.7101 49.0299 28.4601 45.6499 29.9401C44.1799 30.5801 42.6499 30.9101 41.0499 30.8401L41.0399 30.8601Z" fill="white"/>
<path d="M17.62 30.8601C20.05 30.8201 22.19 30.0101 24.07 28.4601C24.74 27.9101 24.95 27.3601 24.66 26.4701C23.35 22.4501 20.85 19.6201 16.68 18.5801C13.37 17.7601 10.14 18.3701 6.98001 19.5301C4.57001 20.4201 4.55001 20.4101 5.80001 22.6201C7.54001 25.7101 9.63001 28.4601 13.01 29.9401C14.48 30.5801 16.01 30.9101 17.61 30.8401L17.62 30.8601Z" fill="white"/>
</g>
<mask id="mask1_314_88" style="mask-type:luminance" maskUnits="userSpaceOnUse" x="10" y="10" width="39" height="39">
<path d="M29.33 48.65C40.0002 48.65 48.65 40.0002 48.65 29.33C48.65 18.6599 40.0002 10.01 29.33 10.01C18.6599 10.01 10.01 18.6599 10.01 29.33C10.01 40.0002 18.6599 48.65 29.33 48.65Z" fill="white"/>
</mask>
<g mask="url(#mask1_314_88)">
<path d="M33.8901 20.64C33.9101 23.38 32.2201 25.98 29.7401 27.07C29.3601 27.24 29.0801 27.14 28.7501 26.98C25.2801 25.31 23.7901 20.83 25.4601 17.01C26.2201 15.27 27.3701 13.78 28.7201 12.45C28.9901 12.18 29.2501 11.85 29.6901 12.27C32.0901 14.56 33.9001 17.16 33.9101 20.65L33.8901 20.64Z" fill="white"/>
<path d="M33.8901 20.64C33.9101 23.38 32.2201 25.98 29.7401 27.07C29.3601 27.24 29.0801 27.14 28.7501 26.98C25.2801 25.31 23.7901 20.83 25.4601 17.01C26.2201 15.27 27.3701 13.78 28.7201 12.45C28.9901 12.18 29.2501 11.85 29.6901 12.27C32.0901 14.56 33.9001 17.16 33.9101 20.65L33.8901 20.64Z" fill="white"/>
<path d="M37.9801 35.36C36.1801 35.33 34.6001 34.73 33.2101 33.59C32.7201 33.18 32.5601 32.78 32.7801 32.12C33.7501 29.15 35.5901 27.06 38.6801 26.29C41.1301 25.68 43.5201 26.13 45.8501 27C47.6301 27.66 47.6401 27.65 46.7201 29.29C45.4301 31.57 43.8901 33.61 41.3901 34.7C40.3001 35.18 39.1701 35.42 37.9901 35.37L37.9801 35.36Z" fill="white"/>
<path d="M40.86 21.0499C40.8 23.9499 38.41 26.0699 35.74 25.6699C34.87 25.5399 34.62 25.0799 34.57 24.3299C34.43 22.0099 36.34 19.8699 38.74 19.6899C38.99 19.6699 39.23 19.6699 39.48 19.6699C40.78 19.6699 40.89 19.7699 40.86 21.0399V21.0499Z" fill="#EEEEEE"/>
<path d="M20.6701 35.36C22.4701 35.33 24.0501 34.73 25.4401 33.59C25.9301 33.18 26.0901 32.78 25.8701 32.12C24.9001 29.15 23.0601 27.06 19.9701 26.29C17.5201 25.68 15.1301 26.13 12.8001 27C11.0201 27.66 11.0101 27.65 11.9301 29.29C13.2201 31.57 14.7601 33.61 17.2601 34.7C18.3501 35.18 19.4801 35.42 20.6601 35.37L20.6701 35.36Z" fill="white"/>
<path d="M17.8001 21.0499C17.8601 23.9499 20.2501 26.0699 22.9201 25.6699C23.7901 25.5399 24.0401 25.0799 24.0901 24.3299C24.2301 22.0099 22.3201 19.8699 19.9201 19.6899C19.6701 19.6699 19.4301 19.6699 19.1801 19.6699C17.8801 19.6699 17.7701 19.7699 17.8001 21.0399V21.0499Z" fill="#EEEEEE"/>
<path d="M30.3401 27.3401C30.1601 27.4401 29.9701 27.5401 29.7801 27.6201C29.3701 27.8001 29.0701 27.7001 28.7101 27.5201C28.5901 27.4601 28.4701 27.4001 28.3601 27.3401H28.3301C28.0701 34.1801 23.8101 35.4001 23.8101 35.4001C23.8101 35.4001 26.5801 43.9001 29.3401 49.5401C32.1101 43.9001 34.8701 35.4001 34.8701 35.4001C34.8701 35.4001 30.6101 34.1801 30.3501 27.3401H30.3401Z" fill="white"/>
<path d="M29.3301 49.7702V38.6802" stroke="white" stroke-width="0.4" stroke-miterlimit="10"/>
<path d="M31.0701 37.27C31.0701 36.31 30.2901 35.53 29.3301 35.53C28.3701 35.53 27.5901 36.31 27.5901 37.27C27.5901 38.23 28.3701 39.01 29.3301 39.01C30.2901 39.01 31.0701 38.23 31.0701 37.27Z" fill="white"/>
</g>
<path d="M29.33 48.65C40.0002 48.65 48.65 40.0002 48.65 29.33C48.65 18.6599 40.0002 10.01 29.33 10.01C18.6599 10.01 10.01 18.6599 10.01 29.33C10.01 40.0002 18.6599 48.65 29.33 48.65Z" stroke="white" stroke-width="0.7" stroke-miterlimit="10"/>
<path d="M53.1599 28.87L53.5799 30.15C53.5999 30.2 53.6499 30.24 53.6999 30.24H55.0499C55.1699 30.24 55.2299 30.4 55.1299 30.47L54.0399 31.26C54.0399 31.26 53.9799 31.35 53.9899 31.4L54.4099 32.68C54.4499 32.8 54.3099 32.9 54.2099 32.82L53.1199 32.03C53.1199 32.03 53.0099 32 52.9699 32.03L51.8799 32.82C51.7799 32.89 51.6399 32.79 51.6799 32.68L52.0999 31.4C52.1199 31.35 52.0999 31.29 52.0499 31.26L50.9599 30.47C50.8599 30.4 50.9099 30.24 51.0399 30.24H52.3899C52.4499 30.24 52.4899 30.2 52.5099 30.15L52.9299 28.87C52.9699 28.75 53.1399 28.75 53.1699 28.87H53.1599Z" fill="white"/>
<path d="M5.73 28.87L6.15 30.15C6.17 30.2 6.22 30.24 6.27 30.24H7.62C7.74 30.24 7.8 30.4 7.7 30.47L6.61 31.26C6.61 31.26 6.55 31.35 6.56 31.4L6.98 32.68C7.02 32.8 6.88 32.9 6.78 32.82L5.69 32.03C5.69 32.03 5.58 32 5.54 32.03L4.45 32.82C4.35 32.89 4.21 32.79 4.25 32.68L4.67 31.4C4.69 31.35 4.67 31.29 4.62 31.26L3.53 30.47C3.43 30.4 3.48 30.24 3.61 30.24H4.96C5.02 30.24 5.06 30.2 5.08 30.15L5.5 28.87C5.54 28.75 5.71 28.75 5.74 28.87H5.73Z" fill="white"/>
<path d="M70.438 47H69.6724L72.5825 39H73.3638L76.2739 47H75.5083L73.0005 39.9492H72.9458L70.438 47ZM70.9888 43.9336H74.9575V44.5898H70.9888V43.9336ZM78.1958 43.25V47H77.5005V41H78.1763V41.9414H78.2388C78.3794 41.6341 78.5981 41.388 78.895 41.2031C79.1945 41.0156 79.5643 40.9219 80.0044 40.9219C80.408 40.9219 80.7622 41.0065 81.0669 41.1758C81.3742 41.3424 81.6125 41.5885 81.7817 41.9141C81.9536 42.2396 82.0396 42.6393 82.0396 43.1133V47H81.3442V43.1562C81.3442 42.6641 81.2062 42.2747 80.9302 41.9883C80.6567 41.7018 80.2896 41.5586 79.8286 41.5586C79.5135 41.5586 79.2336 41.6263 78.9888 41.7617C78.744 41.8971 78.55 42.0924 78.4067 42.3477C78.2661 42.6003 78.1958 42.901 78.1958 43.25ZM87.8394 39V47H87.1089V39H87.8394ZM90.5171 43.25V47H89.8218V41H90.4976V41.9414H90.5601C90.7007 41.6341 90.9194 41.388 91.2163 41.2031C91.5158 41.0156 91.8856 40.9219 92.3257 40.9219C92.7293 40.9219 93.0835 41.0065 93.3882 41.1758C93.6955 41.3424 93.9338 41.5885 94.103 41.9141C94.2749 42.2396 94.3608 42.6393 94.3608 43.1133V47H93.6655V43.1562C93.6655 42.6641 93.5275 42.2747 93.2515 41.9883C92.978 41.7018 92.6108 41.5586 92.1499 41.5586C91.8348 41.5586 91.5549 41.6263 91.3101 41.7617C91.0653 41.8971 90.8713 42.0924 90.728 42.3477C90.5874 42.6003 90.5171 42.901 90.5171 43.25ZM100.223 42.3164L99.5864 42.4961C99.5239 42.3164 99.4354 42.1536 99.3208 42.0078C99.2062 41.862 99.0565 41.7461 98.8716 41.6602C98.6893 41.5742 98.4627 41.5312 98.1919 41.5312C97.7856 41.5312 97.4523 41.6276 97.1919 41.8203C96.9315 42.013 96.8013 42.2617 96.8013 42.5664C96.8013 42.8242 96.8898 43.0339 97.0669 43.1953C97.2466 43.3542 97.5226 43.4805 97.895 43.5742L98.8013 43.7969C99.3039 43.9193 99.6802 44.1133 99.9302 44.3789C100.183 44.6445 100.309 44.9779 100.309 45.3789C100.309 45.7174 100.215 46.0182 100.028 46.2812C99.8403 46.5443 99.5786 46.7513 99.2427 46.9023C98.9093 47.0508 98.5226 47.125 98.0825 47.125C97.4966 47.125 97.0135 46.9935 96.6333 46.7305C96.2531 46.4648 96.0096 46.082 95.9028 45.582L96.5708 45.418C96.6567 45.7747 96.8247 46.0443 97.0747 46.2266C97.3273 46.4089 97.6593 46.5 98.0708 46.5C98.5317 46.5 98.9002 46.3971 99.1763 46.1914C99.4523 45.9831 99.5903 45.7227 99.5903 45.4102C99.5903 45.168 99.5096 44.9648 99.3481 44.8008C99.1867 44.6341 98.9419 44.5117 98.6138 44.4336L97.6333 44.1992C97.1125 44.0742 96.7271 43.8763 96.4771 43.6055C96.2271 43.3346 96.1021 42.9987 96.1021 42.5977C96.1021 42.2669 96.1919 41.9766 96.3716 41.7266C96.5513 41.474 96.7987 41.276 97.1138 41.1328C97.4289 40.9896 97.7882 40.918 98.1919 40.918C98.7414 40.918 99.1802 41.043 99.5083 41.293C99.839 41.5404 100.077 41.8815 100.223 42.3164ZM104.195 41V41.6055H101.332V41H104.195ZM102.226 39.5625H102.925V45.4336C102.925 45.6836 102.968 45.8802 103.054 46.0234C103.14 46.1641 103.252 46.2643 103.39 46.3242C103.528 46.3815 103.675 46.4102 103.832 46.4102C103.923 46.4102 104.001 46.4049 104.066 46.3945C104.131 46.3815 104.188 46.3685 104.238 46.3555L104.386 46.9844C104.319 47.0104 104.235 47.0339 104.136 47.0547C104.037 47.0781 103.915 47.0898 103.769 47.0898C103.514 47.0898 103.268 47.0339 103.031 46.9219C102.796 46.8099 102.604 46.6432 102.453 46.4219C102.302 46.2005 102.226 45.9258 102.226 45.5977V39.5625ZM105.782 47V41H106.481V47H105.782ZM106.137 39.9687C105.994 39.9687 105.872 39.9206 105.77 39.8242C105.668 39.7253 105.618 39.6068 105.618 39.4687C105.618 39.3307 105.668 39.2135 105.77 39.1172C105.872 39.0182 105.994 38.9687 106.137 38.9687C106.28 38.9687 106.403 39.0182 106.504 39.1172C106.606 39.2135 106.657 39.3307 106.657 39.4687C106.657 39.6068 106.606 39.7253 106.504 39.8242C106.403 39.9206 106.28 39.9687 106.137 39.9687ZM110.683 41V41.6055H107.82V41H110.683ZM108.714 39.5625H109.414V45.4336C109.414 45.6836 109.457 45.8802 109.542 46.0234C109.628 46.1641 109.74 46.2643 109.878 46.3242C110.016 46.3815 110.164 46.4102 110.32 46.4102C110.411 46.4102 110.489 46.4049 110.554 46.3945C110.619 46.3815 110.677 46.3685 110.726 46.3555L110.875 46.9844C110.807 47.0104 110.723 47.0339 110.625 47.0547C110.526 47.0781 110.403 47.0898 110.257 47.0898C110.002 47.0898 109.756 47.0339 109.519 46.9219C109.285 46.8099 109.092 46.6432 108.941 46.4219C108.79 46.2005 108.714 45.9258 108.714 45.5977V39.5625ZM116.075 44.707V41H116.77V47H116.075V46.0039H116.02C115.879 46.3112 115.657 46.5677 115.352 46.7734C115.047 46.9766 114.675 47.0781 114.235 47.0781C113.852 47.0781 113.512 46.9948 113.215 46.8281C112.918 46.6589 112.685 46.4115 112.516 46.0859C112.347 45.7604 112.262 45.3607 112.262 44.8867V41H112.958V44.8437C112.958 45.3125 113.096 45.6901 113.372 45.9766C113.648 46.2604 114.002 46.4023 114.434 46.4023C114.705 46.4023 114.965 46.3372 115.215 46.207C115.465 46.0768 115.671 45.8867 115.833 45.6367C115.994 45.3841 116.075 45.0742 116.075 44.707ZM120.974 41V41.6055H118.111V41H120.974ZM119.005 39.5625H119.705V45.4336C119.705 45.6836 119.748 45.8802 119.833 46.0234C119.919 46.1641 120.031 46.2643 120.169 46.3242C120.307 46.3815 120.455 46.4102 120.611 46.4102C120.702 46.4102 120.78 46.4049 120.845 46.3945C120.91 46.3815 120.968 46.3685 121.017 46.3555L121.166 46.9844C121.098 47.0104 121.014 47.0339 120.916 47.0547C120.817 47.0781 120.694 47.0898 120.548 47.0898C120.293 47.0898 120.047 47.0339 119.81 46.9219C119.576 46.8099 119.383 46.6432 119.232 46.4219C119.081 46.2005 119.005 45.9258 119.005 45.5977V39.5625ZM124.915 47.125C124.355 47.125 123.87 46.9948 123.461 46.7344C123.053 46.4714 122.736 46.1081 122.512 45.6445C122.291 45.1784 122.18 44.6419 122.18 44.0352C122.18 43.431 122.291 42.8945 122.512 42.4258C122.736 41.9544 123.045 41.5859 123.438 41.3203C123.834 41.0521 124.291 40.918 124.809 40.918C125.135 40.918 125.448 40.9779 125.75 41.0977C126.053 41.2148 126.323 41.3958 126.563 41.6406C126.805 41.8828 126.997 42.1888 127.137 42.5586C127.278 42.9258 127.348 43.3607 127.348 43.8633V44.207H122.661V43.5937H126.637C126.637 43.2083 126.559 42.862 126.403 42.5547C126.249 42.2448 126.034 42 125.758 41.8203C125.485 41.6406 125.168 41.5508 124.809 41.5508C124.429 41.5508 124.094 41.6523 123.805 41.8555C123.516 42.0586 123.29 42.3268 123.125 42.6602C122.964 42.9935 122.882 43.3581 122.879 43.7539V44.1211C122.879 44.5977 122.961 45.0143 123.125 45.3711C123.292 45.7253 123.528 46 123.833 46.1953C124.137 46.3906 124.498 46.4883 124.915 46.4883C125.198 46.4883 125.447 46.444 125.661 46.3555C125.877 46.2669 126.058 46.1484 126.204 46C126.352 45.849 126.464 45.6836 126.54 45.5039L127.2 45.7187C127.109 45.9714 126.959 46.2044 126.75 46.418C126.545 46.6315 126.287 46.8034 125.977 46.9336C125.67 47.0612 125.316 47.125 124.915 47.125ZM134.306 47.125C133.788 47.125 133.33 46.9935 132.931 46.7305C132.535 46.4674 132.225 46.1042 132.001 45.6406C131.778 45.1745 131.666 44.6367 131.666 44.0273C131.666 43.4128 131.778 42.8724 132.001 42.4062C132.225 41.9375 132.535 41.5729 132.931 41.3125C133.33 41.0495 133.788 40.918 134.306 40.918C134.824 40.918 135.281 41.0495 135.677 41.3125C136.073 41.5755 136.383 41.9401 136.607 42.4062C136.833 42.8724 136.947 43.4128 136.947 44.0273C136.947 44.6367 136.835 45.1745 136.611 45.6406C136.387 46.1042 136.076 46.4674 135.677 46.7305C135.281 46.9935 134.824 47.125 134.306 47.125ZM134.306 46.4883C134.723 46.4883 135.076 46.3763 135.365 46.1523C135.654 45.9284 135.873 45.6302 136.021 45.2578C136.172 44.8854 136.248 44.4753 136.248 44.0273C136.248 43.5794 136.172 43.168 136.021 42.793C135.873 42.418 135.654 42.1172 135.365 41.8906C135.076 41.6641 134.723 41.5508 134.306 41.5508C133.892 41.5508 133.539 41.6641 133.248 41.8906C132.958 42.1172 132.738 42.418 132.587 42.793C132.439 43.168 132.365 43.5794 132.365 44.0273C132.365 44.4753 132.439 44.8854 132.587 45.2578C132.738 45.6302 132.958 45.9284 133.248 46.1523C133.537 46.3763 133.889 46.4883 134.306 46.4883ZM140.942 41V41.6055H137.993V41H140.942ZM138.915 47V40.1211C138.915 39.7982 138.989 39.526 139.137 39.3047C139.288 39.0833 139.485 38.9154 139.727 38.8008C139.969 38.6862 140.226 38.6289 140.497 38.6289C140.679 38.6289 140.83 38.6445 140.95 38.6758C141.072 38.7044 141.168 38.7331 141.239 38.7617L141.036 39.3711C140.984 39.3555 140.92 39.3372 140.844 39.3164C140.769 39.2956 140.674 39.2852 140.559 39.2852C140.257 39.2852 140.024 39.3698 139.86 39.5391C139.696 39.7083 139.614 39.9505 139.614 40.2656L139.61 47H138.915ZM144.818 39H145.662L148.033 42.7969H148.103L150.474 39H151.318L148.431 43.5352V47H147.705V43.5352L144.818 39ZM154.029 47.125C153.511 47.125 153.052 46.9935 152.654 46.7305C152.258 46.4674 151.948 46.1042 151.724 45.6406C151.5 45.1745 151.388 44.6367 151.388 44.0273C151.388 43.4128 151.5 42.8724 151.724 42.4062C151.948 41.9375 152.258 41.5729 152.654 41.3125C153.052 41.0495 153.511 40.918 154.029 40.918C154.547 40.918 155.004 41.0495 155.4 41.3125C155.796 41.5755 156.106 41.9401 156.33 42.4062C156.556 42.8724 156.669 43.4128 156.669 44.0273C156.669 44.6367 156.557 45.1745 156.333 45.6406C156.11 46.1042 155.798 46.4674 155.4 46.7305C155.004 46.9935 154.547 47.125 154.029 47.125ZM154.029 46.4883C154.445 46.4883 154.798 46.3763 155.087 46.1523C155.376 45.9284 155.595 45.6302 155.744 45.2578C155.895 44.8854 155.97 44.4753 155.97 44.0273C155.97 43.5794 155.895 43.168 155.744 42.793C155.595 42.418 155.376 42.1172 155.087 41.8906C154.798 41.6641 154.445 41.5508 154.029 41.5508C153.615 41.5508 153.262 41.6641 152.97 41.8906C152.681 42.1172 152.461 42.418 152.31 42.793C152.162 43.168 152.087 43.5794 152.087 44.0273C152.087 44.4753 152.162 44.8854 152.31 45.2578C152.461 45.6302 152.681 45.9284 152.97 46.1523C153.259 46.3763 153.612 46.4883 154.029 46.4883ZM162.008 44.707V41H162.704V47H162.008V46.0039H161.954C161.813 46.3112 161.59 46.5677 161.286 46.7734C160.981 46.9766 160.609 47.0781 160.168 47.0781C159.786 47.0781 159.446 46.9948 159.149 46.8281C158.852 46.6589 158.619 46.4115 158.45 46.0859C158.28 45.7604 158.196 45.3607 158.196 44.8867V41H158.891V44.8437C158.891 45.3125 159.029 45.6901 159.305 45.9766C159.581 46.2604 159.935 46.4023 160.368 46.4023C160.639 46.4023 160.899 46.3372 161.149 46.207C161.399 46.0768 161.605 45.8867 161.766 45.6367C161.928 45.3841 162.008 45.0742 162.008 44.707ZM164.544 47V41H165.22V41.9219H165.271C165.391 41.6198 165.599 41.3763 165.896 41.1914C166.195 41.0039 166.534 40.9102 166.912 40.9102C166.969 40.9102 167.033 40.9115 167.103 40.9141C167.173 40.9167 167.232 40.9193 167.279 40.9219V41.6289C167.248 41.6237 167.193 41.6159 167.115 41.6055C167.037 41.5951 166.952 41.5898 166.861 41.5898C166.548 41.5898 166.27 41.6562 166.025 41.7891C165.783 41.9193 165.591 42.1003 165.451 42.332C165.31 42.5638 165.24 42.8281 165.24 43.125V47H164.544ZM171.704 47V39H174.286C174.853 39 175.327 39.1094 175.708 39.3281C176.09 39.5443 176.378 39.8385 176.571 40.2109C176.766 40.5833 176.864 41.0026 176.864 41.4687C176.864 41.9349 176.767 42.3555 176.575 42.7305C176.382 43.1029 176.096 43.3984 175.715 43.6172C175.335 43.8333 174.862 43.9414 174.297 43.9414H172.266V43.2852H174.278C174.697 43.2852 175.045 43.207 175.321 43.0508C175.597 42.8919 175.803 42.6758 175.938 42.4023C176.076 42.1289 176.145 41.8177 176.145 41.4687C176.145 41.1198 176.076 40.8086 175.938 40.5352C175.803 40.2617 175.596 40.0469 175.317 39.8906C175.041 39.7344 174.691 39.6562 174.266 39.6562H172.434V47H171.704ZM180.11 47.1367C179.748 47.1367 179.417 47.0664 179.118 46.9258C178.818 46.7826 178.58 46.5768 178.403 46.3086C178.226 46.0378 178.137 45.7096 178.137 45.3242C178.137 45.0273 178.193 44.7773 178.305 44.5742C178.417 44.3711 178.576 44.2044 178.782 44.0742C178.987 43.944 179.231 43.8411 179.512 43.7656C179.793 43.6901 180.103 43.6315 180.442 43.5898C180.778 43.5482 181.062 43.5117 181.293 43.4805C181.528 43.4492 181.706 43.3997 181.829 43.332C181.951 43.2643 182.012 43.1549 182.012 43.0039V42.8633C182.012 42.4544 181.89 42.1328 181.645 41.8984C181.403 41.6615 181.054 41.543 180.598 41.543C180.166 41.543 179.813 41.638 179.54 41.8281C179.269 42.0182 179.079 42.2422 178.969 42.5L178.309 42.2617C178.444 41.9336 178.632 41.6719 178.872 41.4766C179.111 41.2786 179.379 41.1367 179.676 41.0508C179.973 40.9622 180.274 40.918 180.579 40.918C180.808 40.918 181.046 40.9479 181.293 41.0078C181.543 41.0677 181.775 41.1719 181.989 41.3203C182.202 41.4661 182.375 41.6706 182.508 41.9336C182.641 42.194 182.708 42.5247 182.708 42.9258V47H182.012V46.0508H181.969C181.886 46.2279 181.762 46.3997 181.598 46.5664C181.434 46.7331 181.228 46.8698 180.981 46.9766C180.734 47.0833 180.443 47.1367 180.11 47.1367ZM180.204 46.5C180.573 46.5 180.894 46.418 181.165 46.2539C181.435 46.0898 181.644 45.8724 181.79 45.6016C181.938 45.3281 182.012 45.0273 182.012 44.6992V43.832C181.96 43.8815 181.873 43.9258 181.75 43.9648C181.631 44.0039 181.491 44.0391 181.333 44.0703C181.176 44.099 181.02 44.1237 180.864 44.1445C180.708 44.1654 180.567 44.1836 180.442 44.1992C180.103 44.2409 179.814 44.306 179.575 44.3945C179.335 44.4831 179.152 44.6055 179.024 44.7617C178.896 44.9154 178.833 45.1133 178.833 45.3555C178.833 45.7201 178.963 46.0026 179.223 46.2031C179.484 46.401 179.81 46.5 180.204 46.5ZM186.92 41V41.6055H184.057V41H186.92ZM184.952 39.5625H185.651V45.4336C185.651 45.6836 185.694 45.8802 185.78 46.0234C185.866 46.1641 185.978 46.2643 186.116 46.3242C186.254 46.3815 186.401 46.4102 186.557 46.4102C186.648 46.4102 186.726 46.4049 186.792 46.3945C186.857 46.3815 186.914 46.3685 186.963 46.3555L187.112 46.9844C187.044 47.0104 186.961 47.0339 186.862 47.0547C186.763 47.0781 186.64 47.0898 186.495 47.0898C186.239 47.0898 185.993 47.0339 185.756 46.9219C185.522 46.8099 185.329 46.6432 185.178 46.4219C185.027 46.2005 184.952 45.9258 184.952 45.5977V39.5625ZM189.324 43.25V47H188.628V39H189.324V41.9414H189.386C189.527 41.6315 189.744 41.3841 190.039 41.1992C190.335 41.0143 190.71 40.9219 191.164 40.9219C191.57 40.9219 191.927 41.0052 192.234 41.1719C192.541 41.3385 192.781 41.5846 192.953 41.9102C193.125 42.2357 193.21 42.6367 193.21 43.1133V47H192.511V43.1562C192.511 42.6615 192.373 42.2721 192.097 41.9883C191.824 41.7018 191.454 41.5586 190.988 41.5586C190.667 41.5586 190.382 41.6263 190.132 41.7617C189.882 41.8971 189.684 42.0924 189.539 42.3477C189.395 42.6003 189.324 42.901 189.324 43.25ZM196.374 47L194.561 41H195.295L196.717 45.9492H196.768L198.186 41H198.924L200.331 45.9375H200.385L201.807 41H202.542L200.729 47H200.01L198.588 42.082H198.514L197.092 47H196.374ZM205.569 47.1367C205.207 47.1367 204.876 47.0664 204.577 46.9258C204.277 46.7826 204.039 46.5768 203.862 46.3086C203.685 46.0378 203.596 45.7096 203.596 45.3242C203.596 45.0273 203.652 44.7773 203.764 44.5742C203.876 44.3711 204.035 44.2044 204.241 44.0742C204.446 43.944 204.69 43.8411 204.971 43.7656C205.252 43.6901 205.562 43.6315 205.901 43.5898C206.237 43.5482 206.521 43.5117 206.752 43.4805C206.987 43.4492 207.165 43.3997 207.288 43.332C207.41 43.2643 207.471 43.1549 207.471 43.0039V42.8633C207.471 42.4544 207.349 42.1328 207.104 41.8984C206.862 41.6615 206.513 41.543 206.057 41.543C205.625 41.543 205.272 41.638 204.999 41.8281C204.728 42.0182 204.538 42.2422 204.428 42.5L203.768 42.2617C203.903 41.9336 204.091 41.6719 204.331 41.4766C204.57 41.2786 204.838 41.1367 205.135 41.0508C205.432 40.9622 205.733 40.918 206.038 40.918C206.267 40.918 206.505 40.9479 206.752 41.0078C207.002 41.0677 207.234 41.1719 207.448 41.3203C207.661 41.4661 207.834 41.6706 207.967 41.9336C208.1 42.194 208.167 42.5247 208.167 42.9258V47H207.471V46.0508H207.428C207.345 46.2279 207.221 46.3997 207.057 46.5664C206.893 46.7331 206.687 46.8698 206.44 46.9766C206.193 47.0833 205.902 47.1367 205.569 47.1367ZM205.663 46.5C206.032 46.5 206.353 46.418 206.624 46.2539C206.894 46.0898 207.103 45.8724 207.249 45.6016C207.397 45.3281 207.471 45.0273 207.471 44.6992V43.832C207.419 43.8815 207.332 43.9258 207.209 43.9648C207.09 44.0039 206.95 44.0391 206.792 44.0703C206.635 44.099 206.479 44.1237 206.323 44.1445C206.167 44.1654 206.026 44.1836 205.901 44.1992C205.562 44.2409 205.273 44.306 205.034 44.3945C204.794 44.4831 204.611 44.6055 204.483 44.7617C204.355 44.9154 204.292 45.1133 204.292 45.3555C204.292 45.7201 204.422 46.0026 204.682 46.2031C204.943 46.401 205.269 46.5 205.663 46.5ZM210.286 49.25C210.148 49.25 210.019 49.237 209.899 49.2109C209.779 49.1849 209.684 49.1563 209.614 49.125L209.801 48.5117C210.038 48.5846 210.249 48.6107 210.434 48.5898C210.619 48.5716 210.783 48.4883 210.926 48.3398C211.069 48.194 211.197 47.9701 211.309 47.668L211.528 47.0586L209.321 41H210.075L211.856 46.082H211.911L213.692 41H214.446L211.907 47.9492C211.8 48.2383 211.668 48.4792 211.512 48.6719C211.356 48.8672 211.175 49.0117 210.969 49.1055C210.766 49.2018 210.538 49.25 210.286 49.25ZM221.263 41V41.6055H218.4V41H221.263ZM219.294 39.5625H219.994V45.4336C219.994 45.6836 220.037 45.8802 220.123 46.0234C220.208 46.1641 220.32 46.2643 220.458 46.3242C220.597 46.3815 220.744 46.4102 220.9 46.4102C220.991 46.4102 221.069 46.4049 221.134 46.3945C221.199 46.3815 221.257 46.3685 221.306 46.3555L221.455 46.9844C221.387 47.0104 221.304 47.0339 221.205 47.0547C221.106 47.0781 220.983 47.0898 220.837 47.0898C220.582 47.0898 220.336 47.0339 220.099 46.9219C219.865 46.8099 219.672 46.6432 219.521 46.4219C219.37 46.2005 219.294 45.9258 219.294 45.5977V39.5625ZM225.11 47.125C224.592 47.125 224.133 46.9935 223.735 46.7305C223.339 46.4674 223.029 46.1042 222.805 45.6406C222.581 45.1745 222.469 44.6367 222.469 44.0273C222.469 43.4128 222.581 42.8724 222.805 42.4062C223.029 41.9375 223.339 41.5729 223.735 41.3125C224.133 41.0495 224.592 40.918 225.11 40.918C225.628 40.918 226.085 41.0495 226.481 41.3125C226.877 41.5755 227.187 41.9401 227.411 42.4062C227.637 42.8724 227.75 43.4128 227.75 44.0273C227.75 44.6367 227.639 45.1745 227.415 45.6406C227.191 46.1042 226.879 46.4674 226.481 46.7305C226.085 46.9935 225.628 47.125 225.11 47.125ZM225.11 46.4883C225.527 46.4883 225.879 46.3763 226.168 46.1523C226.458 45.9284 226.676 45.6302 226.825 45.2578C226.976 44.8854 227.051 44.4753 227.051 44.0273C227.051 43.5794 226.976 43.168 226.825 42.793C226.676 42.418 226.458 42.1172 226.168 41.8906C225.879 41.6641 225.527 41.5508 225.11 41.5508C224.696 41.5508 224.343 41.6641 224.051 41.8906C223.762 42.1172 223.542 42.418 223.391 42.793C223.243 43.168 223.168 43.5794 223.168 44.0273C223.168 44.4753 223.243 44.8854 223.391 45.2578C223.542 45.6302 223.762 45.9284 224.051 46.1523C224.34 46.3763 224.693 46.4883 225.11 46.4883ZM236.859 41C236.815 40.5547 236.618 40.2005 236.269 39.9375C235.92 39.6745 235.481 39.543 234.953 39.543C234.58 39.543 234.252 39.6068 233.968 39.7344C233.687 39.862 233.466 40.0391 233.304 40.2656C233.145 40.4896 233.066 40.7448 233.066 41.0313C233.066 41.2422 233.111 41.4271 233.203 41.5859C233.294 41.7448 233.416 41.8815 233.57 41.9961C233.726 42.1081 233.898 42.2044 234.085 42.2852C234.276 42.3659 234.467 42.4336 234.66 42.4883L235.503 42.7305C235.759 42.8008 236.014 42.8906 236.269 43C236.524 43.1094 236.757 43.2474 236.968 43.4141C237.182 43.5781 237.352 43.7799 237.48 44.0195C237.61 44.2565 237.675 44.5417 237.675 44.875C237.675 45.3021 237.565 45.6862 237.343 46.0273C237.122 46.3685 236.804 46.6393 236.39 46.8398C235.976 47.0378 235.48 47.1367 234.902 47.1367C234.358 47.1367 233.885 47.0469 233.484 46.8672C233.083 46.6849 232.768 46.4336 232.539 46.1133C232.309 45.793 232.181 45.4219 232.152 45H232.902C232.928 45.3151 233.032 45.582 233.214 45.8008C233.397 46.0195 233.634 46.1862 233.925 46.3008C234.217 46.4128 234.542 46.4687 234.902 46.4687C235.3 46.4687 235.654 46.4023 235.964 46.2695C236.277 46.1341 236.522 45.9466 236.699 45.707C236.878 45.4648 236.968 45.1836 236.968 44.8633C236.968 44.5924 236.898 44.3659 236.757 44.1836C236.617 43.9987 236.42 43.8437 236.167 43.7187C235.917 43.5937 235.627 43.4831 235.296 43.3867L234.339 43.1055C233.712 42.918 233.225 42.6589 232.878 42.3281C232.532 41.9974 232.359 41.5755 232.359 41.0625C232.359 40.6328 232.473 40.2552 232.703 39.9297C232.934 39.6016 233.247 39.3464 233.64 39.1641C234.036 38.9792 234.48 38.8867 234.972 38.8867C235.47 38.8867 235.91 38.9779 236.292 39.1602C236.675 39.3424 236.979 39.5937 237.203 39.9141C237.429 40.2318 237.55 40.5937 237.566 41H236.859ZM243.101 44.707V41H243.796V47H243.101V46.0039H243.046C242.906 46.3112 242.683 46.5677 242.378 46.7734C242.074 46.9766 241.701 47.0781 241.261 47.0781C240.878 47.0781 240.539 46.9948 240.242 46.8281C239.945 46.6589 239.712 46.4115 239.542 46.0859C239.373 45.7604 239.289 45.3607 239.289 44.8867V41H239.984V44.8437C239.984 45.3125 240.122 45.6901 240.398 45.9766C240.674 46.2604 241.028 46.4023 241.46 46.4023C241.731 46.4023 241.992 46.3372 242.242 46.207C242.492 46.0768 242.697 45.8867 242.859 45.6367C243.02 45.3841 243.101 45.0742 243.101 44.707ZM247.981 47.125C247.444 47.125 246.977 46.9909 246.579 46.7227C246.183 46.4544 245.875 46.0872 245.657 45.6211C245.438 45.1549 245.329 44.6237 245.329 44.0273C245.329 43.4258 245.439 42.8906 245.661 42.4219C245.885 41.9531 246.194 41.5859 246.59 41.3203C246.986 41.0521 247.446 40.918 247.969 40.918C248.37 40.918 248.734 40.9961 249.059 41.1523C249.385 41.306 249.653 41.5234 249.864 41.8047C250.077 42.0833 250.211 42.4089 250.266 42.7812H249.563C249.49 42.4427 249.314 42.1536 249.036 41.9141C248.76 41.6719 248.408 41.5508 247.981 41.5508C247.598 41.5508 247.26 41.6549 246.965 41.8633C246.671 42.069 246.441 42.3568 246.274 42.7266C246.11 43.0937 246.028 43.5195 246.028 44.0039C246.028 44.4909 246.109 44.9219 246.27 45.2969C246.431 45.6693 246.658 45.9609 246.95 46.1719C247.244 46.3828 247.588 46.4883 247.981 46.4883C248.247 46.4883 248.489 46.4388 248.708 46.3398C248.929 46.2383 249.114 46.0951 249.262 45.9102C249.413 45.7253 249.515 45.5052 249.567 45.25H250.27C250.218 45.612 250.089 45.9349 249.883 46.2188C249.68 46.5 249.416 46.7214 249.09 46.8828C248.767 47.0443 248.398 47.125 247.981 47.125ZM254.104 47.125C253.568 47.125 253.1 46.9909 252.702 46.7227C252.306 46.4544 251.999 46.0872 251.78 45.6211C251.561 45.1549 251.452 44.6237 251.452 44.0273C251.452 43.4258 251.562 42.8906 251.784 42.4219C252.008 41.9531 252.318 41.5859 252.713 41.3203C253.109 41.0521 253.569 40.918 254.092 40.918C254.493 40.918 254.857 40.9961 255.182 41.1523C255.508 41.306 255.776 41.5234 255.987 41.8047C256.2 42.0833 256.334 42.4089 256.389 42.7812H255.686C255.613 42.4427 255.437 42.1536 255.159 41.9141C254.883 41.6719 254.531 41.5508 254.104 41.5508C253.721 41.5508 253.383 41.6549 253.088 41.8633C252.794 42.069 252.564 42.3568 252.397 42.7266C252.233 43.0937 252.151 43.5195 252.151 44.0039C252.151 44.4909 252.232 44.9219 252.393 45.2969C252.555 45.6693 252.781 45.9609 253.073 46.1719C253.367 46.3828 253.711 46.4883 254.104 46.4883C254.37 46.4883 254.612 46.4388 254.831 46.3398C255.052 46.2383 255.237 46.0951 255.385 45.9102C255.536 45.7253 255.638 45.5052 255.69 45.25H256.393C256.341 45.612 256.212 45.9349 256.006 46.2188C255.803 46.5 255.539 46.7214 255.213 46.8828C254.89 47.0443 254.521 47.125 254.104 47.125ZM260.309 47.125C259.749 47.125 259.265 46.9948 258.856 46.7344C258.447 46.4714 258.131 46.1081 257.907 45.6445C257.685 45.1784 257.575 44.6419 257.575 44.0352C257.575 43.431 257.685 42.8945 257.907 42.4258C258.131 41.9544 258.439 41.5859 258.833 41.3203C259.228 41.0521 259.685 40.918 260.204 40.918C260.529 40.918 260.843 40.9779 261.145 41.0977C261.447 41.2148 261.718 41.3958 261.958 41.6406C262.2 41.8828 262.391 42.1888 262.532 42.5586C262.672 42.9258 262.743 43.3607 262.743 43.8633V44.207H258.055V43.5937H262.032C262.032 43.2083 261.954 42.862 261.797 42.5547C261.644 42.2448 261.429 42 261.153 41.8203C260.879 41.6406 260.563 41.5508 260.204 41.5508C259.823 41.5508 259.489 41.6523 259.2 41.8555C258.911 42.0586 258.684 42.3268 258.52 42.6602C258.359 42.9935 258.277 43.3581 258.274 43.7539V44.1211C258.274 44.5977 258.356 45.0143 258.52 45.3711C258.687 45.7253 258.922 46 259.227 46.1953C259.532 46.3906 259.892 46.4883 260.309 46.4883C260.593 46.4883 260.842 46.444 261.055 46.3555C261.271 46.2669 261.452 46.1484 261.598 46C261.747 45.849 261.859 45.6836 261.934 45.5039L262.594 45.7187C262.503 45.9714 262.353 46.2044 262.145 46.418C261.939 46.6315 261.681 46.8034 261.372 46.9336C261.064 47.0612 260.71 47.125 260.309 47.125ZM268.306 42.3164L267.669 42.4961C267.607 42.3164 267.518 42.1536 267.404 42.0078C267.289 41.862 267.139 41.7461 266.955 41.6602C266.772 41.5742 266.546 41.5312 266.275 41.5312C265.869 41.5312 265.535 41.6276 265.275 41.8203C265.014 42.013 264.884 42.2617 264.884 42.5664C264.884 42.8242 264.973 43.0339 265.15 43.1953C265.33 43.3542 265.606 43.4805 265.978 43.5742L266.884 43.7969C267.387 43.9193 267.763 44.1133 268.013 44.3789C268.266 44.6445 268.392 44.9779 268.392 45.3789C268.392 45.7174 268.298 46.0182 268.111 46.2812C267.923 46.5443 267.662 46.7513 267.326 46.9023C266.992 47.0508 266.606 47.125 266.166 47.125C265.58 47.125 265.097 46.9935 264.716 46.7305C264.336 46.4648 264.093 46.082 263.986 45.582L264.654 45.418C264.74 45.7747 264.908 46.0443 265.158 46.2266C265.41 46.4089 265.742 46.5 266.154 46.5C266.615 46.5 266.983 46.3971 267.259 46.1914C267.535 45.9831 267.673 45.7227 267.673 45.4102C267.673 45.168 267.593 44.9648 267.431 44.8008C267.27 44.6341 267.025 44.5117 266.697 44.4336L265.716 44.1992C265.195 44.0742 264.81 43.8763 264.56 43.6055C264.31 43.3346 264.185 42.9987 264.185 42.5977C264.185 42.2669 264.275 41.9766 264.455 41.7266C264.634 41.474 264.882 41.276 265.197 41.1328C265.512 40.9896 265.871 40.918 266.275 40.918C266.824 40.918 267.263 41.043 267.591 41.293C267.922 41.5404 268.16 41.8815 268.306 42.3164ZM273.946 42.3164L273.309 42.4961C273.247 42.3164 273.158 42.1536 273.043 42.0078C272.929 41.862 272.779 41.7461 272.594 41.6602C272.412 41.5742 272.185 41.5312 271.915 41.5312C271.508 41.5312 271.175 41.6276 270.915 41.8203C270.654 42.013 270.524 42.2617 270.524 42.5664C270.524 42.8242 270.612 43.0339 270.79 43.1953C270.969 43.3542 271.245 43.4805 271.618 43.5742L272.524 43.7969C273.027 43.9193 273.403 44.1133 273.653 44.3789C273.905 44.6445 274.032 44.9779 274.032 45.3789C274.032 45.7174 273.938 46.0182 273.75 46.2812C273.563 46.5443 273.301 46.7513 272.965 46.9023C272.632 47.0508 272.245 47.125 271.805 47.125C271.219 47.125 270.736 46.9935 270.356 46.7305C269.976 46.4648 269.732 46.082 269.625 45.582L270.293 45.418C270.379 45.7747 270.547 46.0443 270.797 46.2266C271.05 46.4089 271.382 46.5 271.793 46.5C272.254 46.5 272.623 46.3971 272.899 46.1914C273.175 45.9831 273.313 45.7227 273.313 45.4102C273.313 45.168 273.232 44.9648 273.071 44.8008C272.909 44.6341 272.665 44.5117 272.336 44.4336L271.356 44.1992C270.835 44.0742 270.45 43.8763 270.2 43.6055C269.95 43.3346 269.825 42.9987 269.825 42.5977C269.825 42.2669 269.915 41.9766 270.094 41.7266C270.274 41.474 270.521 41.276 270.836 41.1328C271.152 40.9896 271.511 40.918 271.915 40.918C272.464 40.918 272.903 41.043 273.231 41.293C273.562 41.5404 273.8 41.8815 273.946 42.3164Z" fill="white"/>
<path d="M85.1364 20.6562H81.4034C81.3352 20.1733 81.196 19.7443 80.9858 19.3693C80.7756 18.9886 80.5057 18.6648 80.1761 18.3977C79.8466 18.1307 79.4659 17.9261 79.0341 17.7841C78.608 17.642 78.1449 17.571 77.6449 17.571C76.7415 17.571 75.9545 17.7955 75.2841 18.2443C74.6136 18.6875 74.0938 19.3352 73.7244 20.1875C73.3551 21.0341 73.1705 22.0625 73.1705 23.2727C73.1705 24.517 73.3551 25.5625 73.7244 26.4091C74.0994 27.2557 74.6222 27.8949 75.2926 28.3267C75.9631 28.7585 76.7386 28.9744 77.6193 28.9744C78.1136 28.9744 78.571 28.9091 78.9915 28.7784C79.4176 28.6477 79.7955 28.4574 80.125 28.2074C80.4545 27.9517 80.7273 27.642 80.9432 27.2784C81.1648 26.9148 81.3182 26.5 81.4034 26.0341L85.1364 26.0511C85.0398 26.8523 84.7983 27.625 84.4119 28.3693C84.0313 29.108 83.517 29.7699 82.8693 30.3551C82.2273 30.9347 81.4602 31.3949 80.5682 31.7358C79.6818 32.071 78.679 32.2386 77.5597 32.2386C76.0028 32.2386 74.6108 31.8864 73.3835 31.1818C72.1619 30.4773 71.196 29.4574 70.4858 28.1222C69.7812 26.7869 69.429 25.1705 69.429 23.2727C69.429 21.3693 69.7869 19.75 70.5028 18.4148C71.2188 17.0795 72.1903 16.0625 73.4176 15.3636C74.6449 14.6591 76.0256 14.3068 77.5597 14.3068C78.571 14.3068 79.5085 14.4489 80.3722 14.733C81.2415 15.017 82.0114 15.4318 82.6818 15.9773C83.3523 16.517 83.8977 17.179 84.3182 17.9631C84.7443 18.7472 85.017 19.6449 85.1364 20.6562ZM90.4631 32H86.5085L92.5341 14.5455H97.2898L103.307 32H99.3523L94.9801 18.5341H94.8438L90.4631 32ZM90.2159 25.1392H99.5568V28.0199H90.2159V25.1392ZM111.595 32H105.408V14.5455H111.646C113.402 14.5455 114.913 14.8949 116.18 15.5938C117.447 16.2869 118.422 17.2841 119.104 18.5852C119.791 19.8864 120.135 21.4432 120.135 23.2557C120.135 25.0739 119.791 26.6364 119.104 27.9432C118.422 29.25 117.442 30.2528 116.163 30.9517C114.891 31.6506 113.368 32 111.595 32ZM109.098 28.8381H111.442C112.533 28.8381 113.45 28.6449 114.195 28.2585C114.945 27.8665 115.507 27.2614 115.882 26.4432C116.263 25.6193 116.453 24.5568 116.453 23.2557C116.453 21.9659 116.263 20.9119 115.882 20.0938C115.507 19.2756 114.947 18.6733 114.203 18.2869C113.459 17.9006 112.541 17.7074 111.45 17.7074H109.098V28.8381ZM129.056 32H122.869V14.5455H129.107C130.863 14.5455 132.374 14.8949 133.641 15.5938C134.908 16.2869 135.883 17.2841 136.565 18.5852C137.252 19.8864 137.596 21.4432 137.596 23.2557C137.596 25.0739 137.252 26.6364 136.565 27.9432C135.883 29.25 134.903 30.2528 133.624 30.9517C132.352 31.6506 130.829 32 129.056 32ZM126.559 28.8381H128.903C129.994 28.8381 130.911 28.6449 131.656 28.2585C132.406 27.8665 132.968 27.2614 133.343 26.4432C133.724 25.6193 133.914 24.5568 133.914 23.2557C133.914 21.9659 133.724 20.9119 133.343 20.0938C132.968 19.2756 132.408 18.6733 131.664 18.2869C130.92 17.9006 130.002 17.7074 128.911 17.7074H126.559V28.8381ZM145.884 14.5455H150.435L155.242 26.2727H155.447L160.254 14.5455H164.805V32H161.225V20.6392H161.08L156.563 31.9148H154.126L149.609 20.5966H149.464V32H145.884V14.5455ZM170.854 32H166.899L172.925 14.5455H177.68L183.697 32H179.743L175.371 18.5341H175.234L170.854 32ZM170.607 25.1392H179.947V28.0199H170.607V25.1392ZM200.398 14.5455V32H197.21L189.616 21.0142H189.489V32H185.798V14.5455H189.037L196.571 25.5227H196.724V14.5455H200.398ZM218.847 20.6562H215.114C215.046 20.1733 214.907 19.7443 214.697 19.3693C214.487 18.9886 214.217 18.6648 213.887 18.3977C213.558 18.1307 213.177 17.9261 212.745 17.7841C212.319 17.642 211.856 17.571 211.356 17.571C210.452 17.571 209.665 17.7955 208.995 18.2443C208.325 18.6875 207.805 19.3352 207.435 20.1875C207.066 21.0341 206.881 22.0625 206.881 23.2727C206.881 24.517 207.066 25.5625 207.435 26.4091C207.81 27.2557 208.333 27.8949 209.004 28.3267C209.674 28.7585 210.45 28.9744 211.33 28.9744C211.825 28.9744 212.282 28.9091 212.702 28.7784C213.129 28.6477 213.506 28.4574 213.836 28.2074C214.165 27.9517 214.438 27.642 214.654 27.2784C214.876 26.9148 215.029 26.5 215.114 26.0341L218.847 26.0511C218.751 26.8523 218.509 27.625 218.123 28.3693C217.742 29.108 217.228 29.7699 216.58 30.3551C215.938 30.9347 215.171 31.3949 214.279 31.7358C213.393 32.071 212.39 32.2386 211.271 32.2386C209.714 32.2386 208.322 31.8864 207.094 31.1818C205.873 30.4773 204.907 29.4574 204.197 28.1222C203.492 26.7869 203.14 25.1705 203.14 23.2727C203.14 21.3693 203.498 19.75 204.214 18.4148C204.93 17.0795 205.901 16.0625 207.129 15.3636C208.356 14.6591 209.737 14.3068 211.271 14.3068C212.282 14.3068 213.219 14.4489 214.083 14.733C214.952 15.017 215.722 15.4318 216.393 15.9773C217.063 16.517 217.609 17.179 218.029 17.9631C218.455 18.7472 218.728 19.6449 218.847 20.6562ZM221.494 32V14.5455H225.184V21.7472H232.675V14.5455H236.357V32H232.675V24.7898H225.184V32H221.494ZM239.4 32V14.5455H251.161V17.5881H243.09V21.7472H250.556V24.7898H243.09V28.9574H251.195V32H239.4ZM263.564 19.5653C263.496 18.8778 263.203 18.3437 262.686 17.9631C262.169 17.5824 261.467 17.392 260.581 17.392C259.979 17.392 259.47 17.4773 259.055 17.6477C258.641 17.8125 258.322 18.0426 258.101 18.3381C257.885 18.6335 257.777 18.9688 257.777 19.3438C257.766 19.6562 257.831 19.929 257.973 20.1619C258.121 20.3949 258.322 20.5966 258.578 20.767C258.834 20.9318 259.129 21.0767 259.464 21.2017C259.8 21.321 260.158 21.4233 260.538 21.5085L262.107 21.8835C262.868 22.054 263.567 22.2812 264.203 22.5653C264.839 22.8494 265.391 23.1989 265.857 23.6136C266.322 24.0284 266.683 24.517 266.939 25.0795C267.2 25.642 267.334 26.2869 267.339 27.0142C267.334 28.0824 267.061 29.0085 266.521 29.7926C265.987 30.571 265.214 31.1761 264.203 31.608C263.197 32.0341 261.984 32.2472 260.564 32.2472C259.155 32.2472 257.928 32.0312 256.882 31.5994C255.842 31.1676 255.03 30.5284 254.445 29.6818C253.865 28.8295 253.561 27.7756 253.533 26.5199H257.104C257.143 27.1051 257.311 27.5937 257.607 27.9858C257.908 28.3722 258.308 28.6648 258.808 28.8636C259.314 29.0568 259.885 29.1534 260.521 29.1534C261.146 29.1534 261.689 29.0625 262.149 28.8807C262.615 28.6989 262.976 28.446 263.232 28.1222C263.487 27.7983 263.615 27.4261 263.615 27.0057C263.615 26.6136 263.499 26.2841 263.266 26.017C263.038 25.75 262.703 25.5227 262.26 25.3352C261.822 25.1477 261.286 24.9773 260.649 24.8239L258.749 24.3466C257.277 23.9886 256.115 23.429 255.263 22.6676C254.411 21.9062 253.987 20.8807 253.993 19.5909C253.987 18.5341 254.268 17.6108 254.837 16.821C255.411 16.0312 256.197 15.4148 257.197 14.9716C258.197 14.5284 259.334 14.3068 260.607 14.3068C261.902 14.3068 263.033 14.5284 263.999 14.9716C264.97 15.4148 265.726 16.0312 266.266 16.821C266.805 17.6108 267.084 18.5256 267.101 19.5653H263.564ZM269.157 17.5881V14.5455H283.492V17.5881H278.148V32H274.501V17.5881H269.157ZM285.853 32V14.5455H297.614V17.5881H289.543V21.7472H297.009V24.7898H289.543V28.9574H297.648V32H285.853ZM300.548 32V14.5455H307.435C308.753 14.5455 309.878 14.7812 310.81 15.2528C311.747 15.7187 312.46 16.3807 312.949 17.2386C313.443 18.0909 313.69 19.0937 313.69 20.2472C313.69 21.4062 313.44 22.4034 312.94 23.2386C312.44 24.0682 311.716 24.7045 310.767 25.1477C309.824 25.5909 308.682 25.8125 307.341 25.8125H302.73V22.8466H306.744C307.449 22.8466 308.034 22.75 308.5 22.5568C308.966 22.3636 309.313 22.0739 309.54 21.6875C309.773 21.3011 309.889 20.821 309.889 20.2472C309.889 19.6676 309.773 19.179 309.54 18.7812C309.313 18.3835 308.963 18.0824 308.491 17.8778C308.026 17.6676 307.438 17.5625 306.727 17.5625H304.239V32H300.548ZM309.974 24.0568L314.312 32H310.239L305.994 24.0568H309.974Z" fill="white"/>
</g>
<defs>
<clipPath id="clip0_314_88">
<rect width="315" height="59" fill="white"/>
</clipPath>
</defs>
</svg>
