<svg width="1440" height="777" viewBox="0 0 1440 777" fill="none" xmlns="http://www.w3.org/2000/svg">
<g opacity="0.3">
<mask id="mask0_314_2205" style="mask-type:luminance" maskUnits="userSpaceOnUse" x="0" y="0" width="1440" height="777">
<path d="M1440 0H0V777H1440V0Z" fill="white"/>
</mask>
<g mask="url(#mask0_314_2205)">
<g opacity="0.08">
<path d="M228.65 1583.37C98.7803 1528.68 40.2803 1490.93 44.5603 1464.58C50.4903 1428.07 175.7 1418.43 334.22 1406.23C460.39 1396.52 603.39 1385.51 721.73 1358.62C858.67 1327.5 934.32 1281.15 953 1216.94C966.83 1169.39 948.57 1110.94 898.71 1043.2C843.26 967.86 746.93 878.55 612.4 777.75C388.36 609.9 291.33 502.17 315.76 448.4C354.11 364 689.48 435.45 958.96 492.87C1135.16 530.41 1287.34 562.84 1296.1 538.08C1305.07 512.73 1164.79 427.56 854.66 270.05C689.25 186.04 568.13 117.03 494.65 64.9396C426.5 16.6296 396.74 -18.3802 403.69 -42.0803C420.47 -99.3203 647.74 -76.4703 888.36 -52.2803C1118.78 -29.1203 1357.04 -5.16028 1374.67 -60.9803C1386.43 -98.2103 1300.97 -167.51 1113.41 -272.83L1114.52 -274.81C1303.16 -168.87 1388.96 -98.7003 1376.83 -60.2903C1358.64 -2.70035 1130.09 -25.6803 888.12 -50.0203C659.01 -73.0503 422.1 -96.8802 405.85 -41.4402C391.95 5.99976 539.08 107.22 855.67 268.02C1260.15 473.46 1304.65 520.66 1298.22 538.84C1288.81 565.47 1143.03 534.41 958.46 495.09C689.78 437.85 355.4 366.6 317.81 449.34C294.22 501.26 393.79 611.15 613.74 775.94C748.45 876.87 844.93 966.33 900.52 1041.86C950.81 1110.19 969.19 1169.31 955.15 1217.58C936.22 1282.66 860.02 1329.52 722.2 1360.84C603.69 1387.77 460.6 1398.79 334.36 1408.5C183.07 1420.14 52.4103 1430.2 46.7703 1464.94C42.7503 1489.75 102.52 1527.8 229.5 1581.27L228.62 1583.36L228.65 1583.37Z" fill="#181818"/>
<path d="M206.84 1596.2C79.9105 1543.03 22.6805 1505.81 26.7605 1479.08C32.4505 1441.76 156.62 1430.03 313.83 1415.16C438.99 1403.33 580.84 1389.91 698.35 1360.66C834.34 1326.8 909.59 1278.34 928.4 1212.5C942.22 1164.13 924.73 1105.28 876.42 1037.6C822.72 962.36 729.19 873.72 598.44 774.15C379.81 607.65 285.62 500.05 310.5 445.2C349.57 359.06 679.8 426.24 945.15 480.21C1118.74 515.52 1268.67 546.03 1277.52 520.68C1286.56 494.79 1149.33 410.7 845.64 256.06C683.87 173.69 565.44 105.78 493.63 54.1998C427.01 6.33984 397.98 -28.6602 404.91 -52.8002C421.7 -111.37 646.2 -91.7202 883.89 -70.9202C1111.46 -51.0002 1346.77 -30.4102 1364.51 -87.5602C1376.29 -125.52 1292.93 -194.32 1109.68 -297.89L1110.8 -299.87C1295.13 -195.7 1378.83 -126.03 1366.68 -86.8901C1348.41 -28.0001 1122.69 -47.7502 883.69 -68.6702C657.38 -88.4802 423.36 -108.95 407.09 -52.1901C393.22 -3.81006 537.01 96.3599 846.67 254.03C1155.74 411.41 1289.28 493.88 1279.66 521.42C1270.16 548.63 1126.53 519.41 944.7 482.42C680.14 428.6 350.88 361.62 312.57 446.12C288.54 499.12 385.18 608.87 599.82 772.32C730.75 872.04 824.44 960.84 878.28 1036.26C927.01 1104.53 944.61 1164.03 930.59 1213.11C911.54 1279.79 835.76 1328.77 698.91 1362.84C581.24 1392.14 439.29 1405.56 314.06 1417.4C164.02 1431.59 34.4405 1443.84 29.0205 1479.4C25.1805 1504.59 83.6404 1542.1 207.74 1594.09L206.86 1596.18L206.84 1596.2Z" fill="#181818"/>
<path d="M185.11 1609.54C61.0704 1557.87 5.10046 1521.17 8.95046 1494.07C14.3805 1455.93 137.57 1442.07 293.55 1424.52C417.76 1410.54 558.54 1394.7 675.26 1363.06C810.37 1326.43 885.25 1275.81 904.18 1208.31C917.98 1159.11 901.25 1099.87 854.45 1032.23C802.47 957.09 711.701 869.11 584.68 770.73C371.37 605.51 279.99 498 305.32 442.04C345.13 354.11 670.38 417.05 931.73 467.62C1102.77 500.72 1250.5 529.31 1259.42 503.37C1268.53 476.92 1134.28 393.9 836.94 242.09C532.99 86.9099 392.12 -13.0901 406.27 -63.6301C423.05 -123.56 644.9 -107.12 879.77 -89.7101C1104.59 -73.0501 1337.05 -55.8201 1354.87 -114.32C1366.65 -153.02 1285.37 -221.33 1106.36 -323.16L1107.48 -325.14C1287.55 -222.7 1369.18 -153.52 1357.04 -113.66C1338.69 -53.4202 1115.7 -69.9501 879.6 -87.4501C655.97 -104.02 424.74 -121.16 408.46 -63.0201C394.65 -13.6801 535.14 85.4599 837.98 240.06C1140.61 394.57 1271.25 476 1261.58 504.11C1252.01 531.92 1110.48 504.52 931.31 469.85C670.75 419.43 346.47 356.68 307.4 442.98C282.91 497.07 376.67 606.74 586.08 768.93C713.29 867.46 804.21 955.61 856.33 1030.94C903.53 1099.16 920.37 1159.05 906.38 1208.93C887.21 1277.27 811.81 1328.4 675.87 1365.26C558.98 1396.95 418.11 1412.8 293.82 1426.79C138.82 1444.23 16.4004 1458.01 11.2204 1494.41C7.58042 1519.97 64.7504 1556.95 186 1607.46L185.13 1609.56L185.11 1609.54Z" fill="#181818"/>
<path d="M163.45 1623.38C42.2705 1573.19 -12.4795 1537.02 -8.84951 1509.55C-3.69951 1470.57 118.58 1454.56 273.39 1434.3C396.71 1418.16 536.49 1399.86 652.48 1365.78C786.76 1326.33 861.3 1273.5 880.36 1204.29C894.13 1154.27 878.14 1094.63 832.83 1027.02C782.54 951.98 694.5 864.64 571.161 767.43C363.091 603.44 274.49 495.97 300.28 438.89C340.84 349.13 661.231 407.84 918.681 455.02C1087.26 485.91 1232.84 512.6 1241.86 486.04C1251.03 459.02 1119.71 377.02 828.6 227.99C531.38 75.8398 393.74 -23.1603 407.81 -74.6603C424.57 -135.99 643.851 -122.76 876.021 -108.76C1098.2 -95.3503 1327.93 -81.4903 1345.81 -141.39C1357.59 -180.83 1278.33 -248.68 1103.52 -348.81L1104.65 -350.78C1280.52 -250.04 1360.11 -181.34 1347.99 -140.74C1329.59 -79.1202 1109.21 -92.4102 875.891 -106.49C654.841 -119.83 426.28 -133.62 410.01 -74.0603C396.27 -23.7603 533.531 74.3797 829.651 225.97C1125.96 377.67 1253.76 458.1 1244.03 486.78C1234.38 515.19 1094.9 489.63 918.301 457.26C661.63 410.22 342.2 351.69 302.38 439.83C277.43 495.04 368.35 604.66 572.6 765.65C696.12 863.01 784.32 950.52 834.75 1025.76C880.44 1093.94 896.54 1154.21 882.58 1204.89C863.3 1274.93 788.25 1328.27 653.151 1367.96C536.99 1402.09 397.12 1420.4 273.71 1436.55C119.86 1456.69 -1.64955 1472.59 -6.56955 1509.85C-9.98955 1535.78 45.9204 1572.23 164.35 1621.28L163.48 1623.38H163.45Z" fill="#181818"/>
<path d="M141.81 1637.74C23.4604 1589.01 -30.0896 1553.36 -26.7096 1525.54C-21.8696 1485.7 99.5604 1467.53 253.29 1444.52C375.79 1426.18 514.63 1405.4 629.95 1368.86C763.48 1326.55 837.71 1271.47 856.88 1200.48C870.62 1149.65 855.35 1089.61 811.5 1022.02C762.87 947.07 677.53 860.35 557.83 764.3C354.92 601.47 269.05 494.02 295.31 435.8C336.62 344.17 652.29 398.69 905.93 442.5C1072.11 471.2 1215.61 495.98 1224.71 468.8C1233.94 441.2 1105.49 360.2 820.5 213.88C529.92 64.6998 395.46 -33.3202 409.43 -85.7802C426.14 -148.56 642.98 -138.55 872.55 -127.94C1092.17 -117.8 1319.27 -107.31 1337.22 -168.64C1348.98 -208.83 1271.73 -276.23 1101.04 -374.69L1102.18 -376.66C1273.91 -277.6 1351.51 -209.34 1339.41 -168C1320.96 -104.96 1103.1 -115.03 872.46 -125.67C653.89 -135.76 427.88 -146.2 411.64 -85.1901C397.99 -33.9201 532.07 63.2498 821.55 211.87C1111.65 360.81 1236.66 440.27 1226.88 469.53C1217.16 498.57 1079.66 474.82 905.56 444.75C652.701 401.08 337.99 346.72 297.39 436.75C271.98 493.1 360.09 602.71 559.26 762.55C679.15 858.76 764.66 945.65 813.42 1020.81C857.63 1088.95 872.99 1149.61 859.09 1201.09C839.7 1272.88 764.97 1328.48 630.65 1371.04C515.15 1407.64 376.22 1428.43 253.64 1446.78C100.86 1469.65 -19.8096 1487.71 -24.4496 1525.83C-27.6496 1552.11 27.0204 1588.03 142.68 1635.65L141.82 1637.75L141.81 1637.74Z" fill="#181818"/>
<path d="M120.23 1652.63C4.6703 1605.35 -47.6997 1570.22 -44.5697 1542.06C-40.0497 1501.35 80.5803 1480.98 233.31 1455.2C355.05 1434.65 493.02 1411.35 607.73 1372.3C740.57 1327.08 814.52 1269.7 833.81 1196.89C847.5 1145.25 832.94 1084.81 790.54 1017.25C743.55 942.38 660.85 856.29 544.75 761.37C346.93 599.65 263.76 492.16 290.48 432.77C332.57 339.23 643.64 389.57 893.57 430.01C1057.42 456.52 1198.93 479.42 1208.1 451.58C1217.38 423.39 1091.76 343.36 812.78 199.7C528.74 53.4496 397.4 -43.6204 411.24 -97.0504C427.89 -161.3 642.38 -154.52 869.46 -147.33C1086.64 -140.46 1311.23 -133.35 1329.22 -196.15C1340.95 -237.09 1265.66 -304.05 1099.04 -400.88L1100.18 -402.84C1267.82 -305.42 1343.46 -237.61 1331.4 -195.52C1312.92 -131.02 1097.48 -137.84 869.39 -145.06C653.2 -151.9 429.64 -158.98 413.44 -96.4803C399.9 -44.2303 530.86 51.9897 813.82 197.68C1097.82 343.92 1220.09 422.44 1210.26 452.29C1200.49 481.97 1064.89 460.03 893.21 432.25C644.03 391.93 333.93 341.75 292.55 433.7C266.67 491.21 352 600.86 546.18 759.61C662.48 854.69 745.34 940.96 792.46 1016.04C835.21 1084.16 849.86 1145.2 836.01 1197.47C816.51 1271.07 742.08 1328.96 608.46 1374.45C493.58 1413.56 355.5 1436.87 233.69 1457.44C81.9003 1483.07 -37.9897 1503.31 -42.3197 1542.31C-45.2797 1568.93 8.18034 1604.33 121.09 1650.53L120.23 1652.63Z" fill="#181818"/>
<path d="M98.6605 1668.04C-14.1395 1622.19 -65.3495 1587.57 -62.4895 1559.1C-58.3195 1517.51 61.5805 1494.92 213.381 1466.33C334.421 1443.53 471.601 1417.69 585.751 1376.09C717.971 1327.9 791.681 1268.18 811.091 1193.49C824.721 1141.05 810.851 1080.21 769.871 1012.67C724.491 937.88 644.411 852.39 531.851 758.58C339.041 597.9 258.54 490.34 285.741 429.76C328.63 334.27 635.211 380.44 881.561 417.53C1043.16 441.87 1182.72 462.88 1191.95 434.38C1201.27 405.59 1078.43 326.5 805.371 185.46C527.771 42.0897 399.491 -54.0603 413.191 -108.46C429.761 -174.24 641.99 -170.69 866.69 -166.93C1081.54 -163.34 1303.7 -159.62 1321.72 -223.93C1333.4 -265.62 1260.04 -332.17 1097.45 -427.38L1098.6 -429.34C1262.21 -333.54 1335.91 -266.14 1323.91 -223.32C1305.41 -157.33 1082.37 -161.06 866.661 -164.66C652.731 -168.24 431.521 -171.94 415.401 -107.91C401.991 -54.6803 529.901 40.6196 806.421 183.44C1084.41 327.02 1203.98 404.63 1194.13 435.07C1184.31 465.41 1050.57 445.27 881.241 419.77C635.651 382.79 330.011 336.76 287.831 430.68C261.471 489.37 344.07 599.1 533.32 756.82C646.081 850.79 726.32 936.47 771.831 1011.47C813.141 1079.56 827.091 1140.98 813.301 1194.04C793.691 1269.5 719.511 1329.74 586.541 1378.2C472.211 1419.87 334.931 1445.72 213.811 1468.54C62.9405 1496.96 -56.2195 1519.4 -60.2195 1559.31C-62.9195 1586.26 -10.6694 1621.13 99.5306 1665.92L98.6805 1668.03L98.6605 1668.04Z" fill="#181818"/>
<path d="M77.1503 1683.98C-32.9297 1639.54 -83.0097 1605.44 -80.4397 1576.67C-76.6397 1534.18 42.5803 1509.34 193.53 1477.9C313.93 1452.83 450.39 1424.4 564.03 1380.21C695.69 1329.01 769.19 1266.88 788.71 1190.27C802.28 1137.04 789.09 1075.81 749.51 1008.28C705.72 933.57 628.21 848.69 519.15 755.98C331.27 596.28 253.41 488.61 281.1 426.82C324.79 329.33 627.03 371.35 869.87 405.11C1029.29 427.27 1166.97 446.41 1176.25 417.22C1185.61 387.83 1065.49 309.64 798.24 171.17C527.01 30.6299 401.74 -64.6101 415.28 -119.99C431.74 -187.34 641.83 -187.02 864.27 -186.73C1076.9 -186.42 1296.72 -186.12 1314.76 -251.98C1326.38 -294.42 1254.92 -360.57 1096.29 -454.19L1097.44 -456.14C1257.08 -361.92 1328.88 -294.94 1316.95 -251.37C1298.46 -183.84 1077.76 -184.13 864.27 -184.45C652.53 -184.73 433.52 -185.06 417.48 -119.44C404.23 -65.2201 529.12 29.1799 799.28 169.16C1071.36 310.14 1188.29 386.86 1178.41 417.92C1168.54 448.93 1036.6 430.59 869.55 407.37C627.45 373.71 326.16 331.83 283.17 427.76C256.33 487.66 336.22 597.51 520.62 754.25C629.88 847.13 707.55 932.21 751.47 1007.14C791.37 1075.2 804.64 1137.01 790.92 1190.84C771.2 1268.21 697.25 1330.85 564.86 1382.34C451.04 1426.6 314.48 1455.04 194 1480.14C43.9803 1511.39 -74.5197 1536.07 -78.1697 1576.88C-80.6097 1604.14 -29.5197 1638.48 78.0003 1681.89L77.1503 1684V1683.98Z" fill="#181818"/>
<path d="M55.6103 1700.47C-51.7797 1657.43 -100.74 1623.85 -98.4596 1594.79C-95.0596 1551.39 23.5603 1524.27 173.73 1489.94C293.55 1462.55 429.35 1431.51 542.56 1384.67C673.73 1330.4 747.04 1265.81 766.69 1187.22C780.19 1133.21 767.67 1071.59 729.46 1004.08C687.23 929.45 612.27 845.16 506.65 753.53C323.64 594.75 248.38 486.93 276.56 423.91C321.07 324.38 619.07 362.26 858.51 392.69C1015.83 412.69 1151.67 429.95 1161.02 400.05C1170.4 370.04 1052.96 292.73 791.44 156.77C526.48 19.0297 404.17 -75.3303 417.52 -131.69C433.85 -200.65 641.91 -203.62 862.19 -206.77C1072.66 -209.78 1290.3 -212.88 1308.34 -280.34C1319.89 -323.54 1250.3 -389.29 1095.58 -481.35L1096.74 -483.3C1252.45 -390.65 1322.38 -324.07 1310.53 -279.76C1292.05 -210.65 1073.54 -207.53 862.22 -204.51C652.51 -201.52 435.66 -198.42 419.73 -131.18C406.66 -75.9803 528.59 17.5497 792.49 154.74C1058.76 293.17 1173.09 369.03 1163.19 400.71C1153.28 432.42 1023.07 415.87 858.22 394.92C619.52 364.58 322.45 326.82 278.63 424.81C251.3 485.93 328.51 595.94 508.14 751.78C613.95 843.58 689.08 928.08 731.44 1002.93C769.94 1070.97 782.54 1133.15 768.9 1187.74C749.07 1267.08 675.32 1332.18 543.43 1386.74C430.05 1433.65 294.15 1464.72 174.24 1492.12C24.9804 1526.24 -92.9196 1553.19 -96.1896 1594.93C-98.3496 1622.48 -48.4196 1656.3 56.4604 1698.33L55.6103 1700.44V1700.47Z" fill="#181818"/>
<path d="M34.1105 1717.52C-70.6295 1675.86 -118.49 1642.79 -116.52 1613.46C-113.54 1569.13 4.53046 1539.7 154 1502.45C273.3 1472.72 408.52 1439.01 521.33 1389.48C652.07 1332.08 725.24 1264.98 745 1184.35C758.43 1129.57 746.55 1067.57 709.7 1000.07C669 925.53 596.551 841.81 494.331 751.24C316.12 593.33 243.43 485.32 272.11 421.04C317.46 319.42 611.34 353.17 847.49 380.29C1002.75 398.12 1136.84 413.52 1146.23 382.9C1155.63 352.26 1040.82 275.81 784.921 142.32C526.151 7.32971 406.74 -86.1602 419.88 -143.49C436.06 -214.11 642.181 -220.37 860.401 -227C1068.85 -233.33 1284.39 -239.88 1302.41 -308.97C1313.87 -352.92 1246.11 -418.29 1095.27 -508.81L1096.44 -510.76C1248.26 -419.65 1316.36 -353.45 1304.61 -308.4C1286.16 -237.66 1069.76 -231.09 860.48 -224.73C652.72 -218.42 437.89 -211.89 422.1 -142.98C409.23 -86.7902 528.25 5.86981 785.98 140.31C1046.54 276.23 1158.32 351.26 1148.41 383.57C1138.46 416 1009.94 401.24 847.24 382.55C611.84 355.52 318.86 321.87 274.19 421.97C246.36 484.35 320.931 594.56 495.841 749.55C598.25 840.29 670.87 924.21 711.69 998.99C748.82 1067 760.77 1129.55 747.2 1184.9C727.25 1266.27 653.66 1333.87 522.23 1391.57C409.24 1441.18 273.92 1474.91 154.54 1504.66C5.96043 1541.7 -111.4 1570.94 -114.27 1613.62C-116.14 1641.44 -67.3395 1674.74 34.9305 1715.41L34.0905 1717.52H34.1105Z" fill="#181818"/>
<path d="M12.6105 1735.11C-89.5095 1694.81 -136.3 1662.27 -134.64 1632.69C-132.11 1587.43 -14.5295 1555.65 134.331 1515.42C253.171 1483.3 387.86 1446.89 500.35 1394.62C630.73 1334.02 703.781 1264.35 723.681 1181.63C737.031 1126.1 725.791 1063.73 690.271 996.24C651.091 921.79 581.09 838.64 482.24 749.12C308.75 592.01 238.6 483.77 267.79 418.21C313.991 314.46 603.89 344.09 836.83 367.89C990.13 383.56 1122.51 397.09 1131.95 365.72C1141.35 334.44 1029.13 258.83 778.771 127.76C526.11 -4.51013 409.56 -97.1501 422.461 -155.45C438.461 -227.77 642.74 -237.34 859.021 -247.48C1065.54 -257.16 1279.09 -267.17 1297.07 -337.95C1308.42 -382.65 1242.47 -447.65 1095.45 -536.66L1096.63 -538.6C1244.62 -449 1310.91 -383.19 1299.28 -337.39C1280.89 -264.98 1066.48 -254.93 859.13 -245.22C653.22 -235.57 440.3 -225.59 424.68 -154.97C412.03 -97.8001 528.2 -5.9801 779.83 125.74C1034.77 259.21 1144.04 333.42 1134.13 366.37C1124.15 399.53 997.26 386.56 836.61 370.14C604.4 346.4 315.401 316.86 269.881 419.12C241.541 482.77 313.51 593.23 483.781 747.42C582.831 837.12 652.991 920.48 692.301 995.17C728.081 1063.16 739.391 1126.07 725.901 1182.15C705.841 1265.59 632.38 1335.77 501.33 1396.67C388.67 1449.03 253.871 1485.46 134.951 1517.61C-13.0195 1557.6 -129.899 1589.19 -132.339 1632.82C-133.909 1660.89 -86.2195 1693.66 13.4805 1733L12.6505 1735.11H12.6105Z" fill="#181818"/>
<path d="M-8.9295 1753.27C-108.45 1714.32 -154.18 1682.3 -152.85 1652.5C-150.79 1606.3 -33.6395 1572.13 114.67 1528.87C233.11 1494.32 367.36 1455.17 479.56 1400.09C609.651 1336.24 682.62 1263.93 702.641 1179.05C715.911 1122.79 705.3 1060.04 671.09 992.56C633.39 918.19 565.831 835.62 470.281 747.12C301.451 590.77 233.82 482.26 263.521 415.4C310.581 309.45 596.62 334.98 826.46 355.49C977.85 369 1108.6 380.67 1118.07 348.53C1127.47 316.61 1017.78 241.8 772.87 113.11C526.24 -16.4803 412.49 -108.3 425.13 -167.57C440.92 -241.65 643.481 -254.56 857.931 -268.23C1062.62 -281.28 1274.28 -294.77 1292.21 -367.28C1303.45 -412.72 1239.27 -477.36 1096.01 -564.88L1097.19 -566.82C1241.4 -478.72 1305.91 -413.27 1294.41 -366.74C1276.08 -292.62 1063.58 -279.07 858.07 -265.97C653.9 -252.95 442.78 -239.49 427.35 -167.1C414.95 -108.96 528.321 -17.9603 773.931 111.1C1023.33 242.15 1130.14 315.58 1120.25 349.17C1110.26 383.09 984.921 371.91 826.26 357.75C597.141 337.31 312.01 311.86 265.6 416.32C236.75 481.27 306.13 592 471.831 745.45C567.581 834.13 635.3 916.92 673.13 991.53C707.581 1059.5 718.26 1122.76 704.87 1179.56C684.68 1265.14 611.32 1337.94 480.581 1402.11C368.19 1457.27 233.85 1496.46 115.32 1531.03C-32.1195 1574.03 -148.57 1608 -150.57 1652.58C-151.83 1680.88 -105.23 1713.12 -8.08954 1751.14L-8.91949 1753.26L-8.9295 1753.27Z" fill="#181818"/>
<path d="M-30.4697 1772C-127.43 1734.37 -172.13 1702.88 -171.14 1672.88C-169.57 1625.72 -52.7997 1589.13 95.0403 1542.79C213.14 1505.78 347 1463.82 458.99 1405.89C588.85 1338.72 661.78 1263.72 681.93 1176.63C695.12 1119.65 685.12 1056.55 652.2 989.09C615.96 914.82 550.79 832.8 458.5 745.32C294.27 589.66 229.12 480.84 259.34 412.65C307.29 304.46 589.57 325.89 816.38 343.1C965.95 354.45 1095.11 364.25 1104.6 331.32C1113.99 298.74 1006.79 224.71 767.25 98.3499C526.58 -28.6002 415.59 -119.59 427.94 -179.83C443.5 -255.71 644.44 -271.99 857.17 -289.23C1060.13 -305.67 1270.01 -322.68 1287.86 -396.96C1298.96 -443.14 1236.52 -507.41 1096.99 -593.46L1098.18 -595.39C1238.65 -508.76 1301.42 -443.68 1290.06 -396.42C1271.82 -320.54 1061.12 -303.47 857.34 -286.96C654.8 -270.55 445.37 -253.58 430.15 -179.37C418.03 -120.26 528.64 -30.0701 768.29 96.3499C1012.24 225.03 1116.63 297.7 1106.76 331.95C1096.76 366.66 972.94 357.25 816.18 345.36C590.08 328.21 308.69 306.86 261.39 413.57C247.39 445.15 255.05 487.04 284.16 538.05C316.24 594.28 375.41 663.46 460.03 743.67C552.52 831.34 617.86 913.58 654.22 988.1C687.37 1056.04 697.43 1119.65 684.12 1177.15C663.8 1264.93 590.5 1340.41 460.01 1407.91C347.85 1465.93 213.89 1507.92 95.7003 1544.96C-51.2796 1591.03 -167.38 1627.41 -168.89 1672.96C-169.84 1701.46 -124.3 1733.17 -29.6697 1769.88L-30.4897 1772H-30.4697Z" fill="#181818"/>
<path d="M-52.0297 1791.31C-146.47 1754.99 -190.15 1724.03 -189.5 1693.86C-188.46 1645.75 -71.9897 1606.67 75.4603 1557.2C303.47 1480.7 615.75 1375.94 661.55 1174.36C674.66 1116.68 665.26 1053.24 633.62 985.8C598.82 911.63 536 830.17 446.92 743.68C287.22 588.65 224.54 479.49 255.28 409.95C304.13 299.48 582.77 316.8 806.67 330.71C954.48 339.9 1082.12 347.83 1091.62 314.09C1100.98 280.85 996.24 207.58 761.99 83.5099C527.19 -40.8401 418.91 -131.03 430.96 -192.21C446.26 -269.94 645.67 -289.63 856.78 -310.47C1058.12 -330.34 1266.31 -350.89 1284.08 -427C1295.03 -473.91 1234.31 -537.84 1098.45 -622.44L1099.65 -624.37C1236.44 -539.19 1297.49 -474.46 1286.29 -426.49C1268.16 -348.8 1059.14 -328.17 857 -308.22C656 -288.38 448.16 -267.86 433.18 -191.79C421.36 -131.72 529.26 -42.3301 763.05 81.4899C1001.63 207.85 1103.64 279.77 1093.81 314.69C1083.81 350.19 961.44 342.59 806.53 332.96C583.34 319.09 305.57 301.82 257.36 410.85C243.11 443.08 250.07 485.39 278.05 536.61C308.88 593.05 366.23 662.16 448.5 742.03C537.79 828.71 600.77 910.39 635.68 984.81C667.54 1052.72 676.99 1116.66 663.77 1174.84C643.31 1264.87 570.03 1343.1 439.72 1414C327.72 1474.94 194.09 1519.77 76.1803 1559.33C-70.4197 1608.52 -186.22 1647.36 -187.23 1693.88C-187.85 1722.56 -143.36 1753.73 -51.2197 1789.16L-52.0397 1791.28L-52.0297 1791.31Z" fill="#181818"/>
<path d="M-73.6395 1811.2C-165.59 1776.18 -208.27 1745.75 -207.96 1715.43C-207.46 1666.35 -91.2495 1624.76 55.8805 1572.11C283.53 1490.63 595.32 1379.05 641.48 1172.23C654.51 1113.87 645.7 1050.1 615.32 982.68C581.94 908.61 521.44 827.7 435.5 742.19C355.37 662.46 299.68 593.2 269.98 536.34C242.79 484.27 236.5 440.85 251.3 407.29C301.06 294.48 576.19 307.7 797.25 318.32C943.37 325.34 1069.54 331.41 1079.05 296.83C1088.38 262.92 986.041 190.39 756.99 68.5698C528 -53.2102 422.37 -142.61 434.081 -204.73C449.091 -284.37 656.31 -308.57 856.71 -331.97C1056.53 -355.31 1263.14 -379.43 1280.79 -457.41C1291.57 -505.03 1232.54 -568.61 1100.32 -651.78L1101.53 -653.7C1234.67 -569.95 1294.03 -505.58 1283.01 -456.9C1265 -377.36 1057.57 -353.14 856.97 -329.71C657.39 -306.4 451.01 -282.3 436.31 -204.3C424.81 -143.28 530.051 -54.6702 758.051 66.5798C991.351 190.65 1091.02 261.85 1081.24 297.44C1071.25 333.77 950.281 327.96 797.141 320.59C576.771 310 302.51 296.82 253.38 408.21C238.87 441.1 245.13 483.86 271.99 535.29C301.58 591.95 357.13 661.02 437.1 740.58C523.23 826.28 583.891 907.42 617.391 981.75C647.981 1049.63 656.84 1113.88 643.7 1172.73C623.09 1265.07 549.79 1346.11 419.6 1420.49C307.71 1484.41 174.331 1532.15 56.6505 1574.26C-89.6495 1626.62 -205.2 1667.97 -205.68 1715.47C-205.97 1744.3 -162.51 1774.93 -72.8195 1809.09L-73.6295 1811.21L-73.6395 1811.2Z" fill="#181818"/>
<path d="M-95.2995 1831.68C-184.789 1797.93 -226.489 1768.04 -226.529 1737.61C-226.609 1687.56 -110.59 1643.41 36.3005 1587.5C263.7 1500.95 575.14 1382.41 621.69 1170.22C648.79 1046.7 582.351 902.24 424.211 740.85C346.361 661.39 292.45 592.15 263.98 535.03C237.91 482.73 232.331 438.86 247.38 404.65C298.081 289.44 569.8 298.56 788.11 305.89C932.6 310.74 1057.38 314.93 1066.89 279.49C1076.17 244.9 976.2 173.08 752.271 53.4697C529.021 -65.7703 426.01 -154.38 437.35 -217.42C452.03 -299.02 657.88 -326.86 856.95 -353.78C1055.34 -380.61 1260.49 -408.36 1278.01 -488.25C1288.61 -536.57 1231.23 -599.81 1102.6 -681.58L1103.82 -683.5C1233.35 -601.16 1291.06 -537.14 1280.23 -487.77C1262.37 -406.33 1056.42 -378.47 857.26 -351.54C659 -324.73 453.991 -297 439.591 -217.03C428.44 -155.08 531.07 -67.2603 753.34 51.4597C981.43 173.29 1078.81 243.79 1069.08 280.07C1059.11 317.25 939.49 313.23 788.031 308.15C570.391 300.84 299.531 291.76 249.451 405.56C234.681 439.13 240.25 482.34 266 534.01C294.37 590.92 348.141 659.97 425.82 739.25C508.85 823.99 567.23 904.59 599.33 978.81C628.67 1046.65 636.94 1111.21 623.891 1170.7C603.11 1265.4 529.76 1349.32 399.62 1427.23C287.781 1494.19 154.601 1544.88 37.0905 1589.61C-108.979 1645.21 -224.349 1689.12 -224.279 1737.59C-224.239 1766.54 -181.789 1796.62 -94.5195 1829.54L-95.3195 1831.66L-95.2995 1831.68Z" fill="#181818"/>
<path d="M-117.01 1852.79C-204.07 1820.29 -244.81 1790.95 -245.21 1760.43C-245.88 1709.41 -130 1662.64 16.7205 1603.42C243.98 1511.69 555.22 1386.06 602.19 1168.37C629.12 1043.58 565.5 899.35 413.1 739.67C337.5 660.46 285.351 591.2 258.091 533.82C233.131 481.28 228.24 436.95 243.56 402.07C295.22 284.41 563.611 289.43 779.301 293.46C922.23 296.13 1045.68 298.44 1055.17 262.12C1064.39 226.84 966.74 155.72 747.86 38.2899C530.271 -78.4501 429.83 -166.28 440.79 -230.23C455.12 -313.84 659.701 -345.37 857.551 -375.86C1054.62 -406.23 1258.4 -437.63 1275.76 -519.49C1286.16 -568.5 1230.41 -631.4 1105.33 -711.77L1106.56 -713.68C1232.53 -632.74 1288.6 -569.07 1277.98 -519.02C1260.28 -435.63 1055.72 -404.1 857.891 -373.62C660.841 -343.25 457.081 -311.85 443.021 -229.85C432.25 -166.99 532.311 -79.9302 748.921 36.2798C971.891 155.9 1067.01 225.73 1057.36 262.69C1047.42 300.74 929.071 298.53 779.25 295.72C564.24 291.7 296.68 286.7 245.63 402.97C230.59 437.22 235.47 480.91 260.141 532.83C287.291 590 339.31 659.06 414.74 738.09C494.73 821.89 550.86 901.96 581.59 976.07C609.7 1043.87 617.38 1108.73 604.411 1168.84C583.451 1265.97 510 1352.82 379.85 1434.36C268.01 1504.43 134.96 1558.14 17.5605 1605.52C-128.35 1664.42 -243.61 1710.94 -242.95 1760.4C-242.57 1789.45 -201.11 1818.97 -116.23 1850.66L-117.02 1852.79H-117.01Z" fill="#181818"/>
<path d="M-138.77 1874.48C-222.28 1843.65 -263.24 1814.01 -263.99 1783.86C-265.29 1731.88 -149.48 1682.43 -2.84964 1619.83C224.37 1522.81 535.56 1389.95 583 1166.63C609.77 1040.63 548.92 896.64 402.14 738.65C328.76 659.66 278.35 590.37 252.29 532.69C228.44 479.88 224.24 435.08 239.81 399.52C292.45 279.35 557.63 280.27 770.78 280.99C912.24 281.48 1034.4 281.9 1043.86 244.67C1053 208.7 957.63 138.25 743.74 22.9597C531.75 -91.3004 433.83 -178.37 444.38 -243.19C458.33 -328.87 661.76 -364.13 858.49 -398.23C1054.34 -432.18 1256.86 -467.29 1274.06 -551.17C1284.25 -600.85 1230.1 -663.4 1108.53 -742.4L1109.77 -744.3C1232.22 -664.73 1286.69 -601.41 1276.29 -550.71C1258.78 -465.31 1055.48 -430.07 858.88 -395.99C662.93 -362.02 460.31 -326.9 446.63 -242.82C436.25 -179.06 533.79 -92.7803 744.82 20.9697C962.73 138.42 1055.64 207.59 1046.07 245.24C1036.17 284.19 919.06 283.79 770.78 283.27C558.32 282.55 293.93 281.63 241.89 400.44C226.59 435.39 230.78 479.57 254.36 531.76C280.31 589.21 330.59 658.3 403.8 737.11C480.8 819.99 534.73 899.53 564.11 973.51C591.01 1041.26 598.11 1106.4 585.22 1167.1C564.06 1266.71 490.47 1356.56 360.25 1441.8C248.35 1515.04 115.37 1571.82 -1.95969 1621.92C-147.79 1684.18 -262.98 1733.36 -261.72 1783.8C-260.99 1812.91 -220.52 1841.88 -137.98 1872.35L-138.77 1874.48Z" fill="#181818"/>
<path d="M-160.61 1896.81C-241.8 1867.18 -281.8 1838.1 -282.91 1807.93C-284.85 1754.98 -169.06 1702.81 -22.4596 1636.76C204.83 1534.35 516.12 1394.1 564.08 1165.03C590.7 1037.87 532.58 894.13 391.34 737.78C320.15 658.98 271.45 589.62 246.59 531.64C223.83 478.55 220.32 433.25 236.16 397C289.79 274.25 551.94 271.05 762.58 268.48C902.62 266.77 1023.55 265.29 1032.98 227.13C1042.03 190.47 948.911 120.68 739.92 7.47961C533.46 -104.34 438.01 -190.63 448.13 -256.32C461.66 -344.12 664.041 -383.18 859.771 -420.94C1054.49 -458.52 1255.85 -497.37 1272.86 -583.31C1282.82 -633.64 1230.25 -695.85 1112.13 -773.48L1113.38 -775.38C1232.36 -697.18 1285.25 -634.21 1275.09 -582.87C1257.78 -495.43 1055.66 -456.42 860.2 -418.71C665.25 -381.09 463.67 -342.19 450.38 -255.97C440.42 -191.35 535.49 -105.82 741.01 5.48962C953.93 120.81 1044.66 189.34 1035.19 227.68C1025.35 267.55 909.401 268.97 762.61 270.76C552.63 273.32 291.29 276.51 238.25 397.92C222.67 433.57 226.18 478.26 248.69 530.75C273.45 588.51 322.02 657.65 393.04 736.27C467.1 818.24 518.87 897.26 546.91 971.12C572.62 1038.82 579.15 1104.22 566.32 1165.5C518.12 1395.7 206.23 1536.23 -21.5096 1638.83C-167.33 1704.53 -282.51 1756.43 -280.63 1807.84C-279.56 1836.99 -240.05 1865.39 -159.83 1894.67L-160.61 1896.8V1896.81Z" fill="#181818"/>
<path d="M-182.53 1919.75C-261.42 1891.3 -300.49 1862.81 -301.95 1832.65C-304.56 1778.75 -188.73 1723.8 -42.0797 1654.22C185.38 1546.31 496.9 1398.52 545.44 1163.57C571.94 1035.31 516.5 891.81 380.68 737.07C311.65 658.43 264.65 588.99 240.97 530.68C219.29 477.3 216.47 431.49 232.58 394.54C287.23 269.17 546.4 261.85 754.65 255.96C893.34 252.04 1013.12 248.66 1022.5 209.52C1031.45 172.16 940.53 103 736.38 -8.13019C535.38 -117.54 442.37 -203.05 452.04 -269.56C465.11 -359.53 666.56 -402.44 861.37 -443.93C1055.08 -485.19 1255.39 -527.85 1272.19 -615.92C1281.92 -666.88 1230.89 -728.74 1116.2 -805.04L1117.46 -806.93C1233 -730.07 1284.34 -667.45 1274.43 -615.49C1257.34 -525.94 1056.28 -483.12 861.85 -441.7C667.8 -400.37 467.14 -357.63 454.29 -269.22C444.78 -203.76 537.41 -119.01 737.47 -10.1102C945.48 103.12 1034.06 171.03 1024.71 210.07C1014.93 250.9 900.1 254.14 754.72 258.25C547.12 264.12 288.75 271.42 234.67 395.47C218.81 431.84 221.65 477.05 243.09 529.85C266.68 587.93 313.55 657.15 382.41 735.6C453.59 816.69 503.24 895.19 529.97 968.92C554.5 1036.57 560.46 1102.22 547.69 1164.05C498.92 1400.1 186.82 1548.17 -41.0797 1656.29C-186.96 1725.5 -302.19 1780.17 -299.65 1832.55C-298.24 1861.69 -259.66 1889.52 -181.73 1917.63L-182.5 1919.76L-182.53 1919.75Z" fill="#181818"/>
<path d="M-204.54 1943.35C-281.17 1916.06 -319.31 1888.15 -321.12 1858.03C-324.43 1803.18 -208.5 1745.38 -61.7296 1672.21C166 1558.68 477.891 1403.19 527.06 1162.25C553.451 1032.92 500.66 889.69 370.15 736.52C303.26 658.02 257.93 588.47 235.42 529.81C214.81 476.11 212.67 429.78 229.05 392.12C284.74 264.06 541.05 252.6 747 243.4C884.42 237.26 1003.1 231.95 1012.41 191.83C1021.24 153.77 932.49 85.2298 733.1 -23.8802C537.5 -130.9 446.88 -215.64 456.07 -282.95C468.66 -375.16 669.28 -421.97 863.29 -467.25C1056.08 -512.24 1255.43 -558.77 1272.01 -649C1281.48 -700.56 1231.98 -762.07 1120.66 -837.05L1121.93 -838.93C1234.08 -763.4 1283.91 -701.14 1274.25 -648.59C1257.4 -556.89 1057.31 -510.19 863.81 -465.04C670.54 -419.94 470.7 -373.3 458.33 -282.64C449.28 -216.38 539.52 -132.39 734.2 -25.8702C934.62 83.7998 1023.73 153.14 1014.63 192.34C1004.93 234.15 891.15 239.23 747.11 245.67C541.79 254.85 286.27 266.27 231.14 393.03C215 430.13 217.16 475.88 237.54 529.01C259.96 587.43 305.16 656.76 371.88 735.06C440.24 815.29 487.8 893.28 513.24 966.87C536.61 1034.46 542 1100.35 529.28 1162.71C479.89 1404.74 167.43 1560.51 -60.7196 1674.25C-206.74 1747.05 -322.07 1804.55 -318.86 1857.9C-317.11 1887.01 -279.46 1914.26 -203.78 1941.21L-204.54 1943.35Z" fill="#181818"/>
<path d="M-226.66 1967.59C-301.07 1941.44 -338.3 1914.12 -340.46 1884.08C-344.48 1828.29 -228.4 1767.59 -81.4297 1690.74C146.67 1571.47 459.06 1408.12 508.94 1161.07C535.25 1030.73 485.06 887.76 359.76 736.13C294.98 657.74 251.32 588.06 229.97 529.03C210.43 475 208.97 428.13 225.63 389.74C282.39 258.92 535.95 243.32 739.68 230.79C875.88 222.41 993.51 215.17 1002.75 174.03C1011.45 135.27 924.82 67.3298 730.14 -39.7702C539.87 -144.44 451.6 -228.41 460.29 -296.48C472.36 -390.97 672.26 -441.78 865.58 -490.91C1057.55 -539.7 1256.05 -590.14 1272.39 -682.61C1281.6 -734.75 1233.59 -795.91 1125.61 -869.57L1126.89 -871.44C1235.69 -797.22 1284.01 -735.32 1274.63 -682.21C1258.04 -588.3 1058.81 -537.67 866.14 -488.71C673.55 -439.77 474.41 -389.16 462.54 -296.2C453.98 -229.16 541.87 -145.94 731.23 -41.7702C926.93 65.8898 1013.91 134.62 1004.96 174.52C995.35 217.33 882.59 224.27 739.81 233.05C536.7 245.55 283.91 261.1 227.7 390.64C211.28 428.49 212.76 474.79 232.1 528.26C253.36 587.05 296.9 656.49 361.51 734.68C427.11 814.06 472.63 891.56 496.8 965.01C519.03 1032.54 523.86 1098.66 511.17 1161.52C461.08 1409.64 148.13 1573.27 -80.3697 1692.76C-226.6 1769.22 -342.1 1829.61 -338.18 1883.92C-336.09 1912.96 -299.36 1939.63 -225.89 1965.45L-226.64 1967.59H-226.66Z" fill="#181818"/>
<path d="M-248.87 1992.5C-321.1 1967.47 -357.43 1940.75 -359.94 1910.82C-364.69 1854.1 -248.4 1790.43 -101.17 1709.83C127.39 1584.7 440.42 1413.33 491.08 1160.04C517.34 1028.74 469.71 886.04 349.5 735.89C286.81 657.58 244.78 587.75 224.58 528.33C206.09 473.94 205.3 426.53 222.25 387.39C280.1 253.76 531 234 732.6 218.12C867.67 207.48 984.31 198.3 993.45 156.1C1002 116.64 917.47 49.2899 727.42 -55.8502C542.42 -158.19 456.46 -241.38 464.64 -310.17C476.15 -407.01 675.45 -461.86 868.19 -514.91C1059.43 -567.55 1257.18 -621.98 1273.26 -716.71C1282.2 -769.4 1235.66 -830.19 1130.97 -902.56L1132.26 -904.43C1237.76 -831.51 1284.61 -769.98 1275.51 -716.33C1259.19 -620.17 1060.73 -565.55 868.8 -512.72C676.79 -459.87 478.24 -405.22 466.91 -309.9C458.85 -242.13 544.43 -159.69 728.53 -57.8401C919.58 47.8599 1004.47 115.99 995.68 156.57C986.18 200.42 874.36 209.23 732.79 220.38C531.79 236.21 281.65 255.91 224.34 388.28C207.63 426.88 208.44 473.75 226.74 527.59C246.86 586.75 288.76 656.36 351.28 734.46C414.18 813.02 457.69 890.02 480.61 963.33C501.71 1030.79 505.98 1097.12 493.31 1160.47C442.44 1414.8 128.88 1586.46 -100.08 1711.81C-246.59 1792.02 -362.31 1855.37 -357.68 1910.62C-355.25 1939.56 -319.42 1965.64 -248.13 1990.35L-248.87 1992.5Z" fill="#181818"/>
<path d="M-271.199 2018.06C-341.279 1994.13 -376.729 1968.01 -379.569 1938.23C-385.079 1880.6 -268.529 1813.9 -120.969 1729.46C108.151 1598.35 421.951 1418.79 473.471 1159.15C499.711 1026.94 454.591 884.5 339.371 735.81C278.741 657.56 238.331 587.55 219.271 527.72C201.821 472.96 201.711 424.98 218.941 385.09C277.911 248.57 526.27 224.64 725.83 205.4C859.82 192.49 975.54 181.33 984.58 138.05C992.97 97.8898 910.49 31.1199 725.01 -72.0801C545.211 -172.13 461.521 -254.53 469.171 -323.99C480.101 -423.22 678.891 -482.21 871.141 -539.25C1061.76 -595.81 1258.86 -654.29 1274.66 -751.35C1283.32 -804.56 1238.22 -864.98 1136.78 -936.07L1138.08 -937.93C1240.31 -866.29 1285.72 -805.14 1276.91 -750.98C1260.88 -652.52 1063.08 -593.83 871.791 -537.07C680.25 -480.24 482.191 -421.47 471.431 -323.73C463.891 -255.27 547.201 -173.6 726.12 -74.0502C912.59 29.6998 995.421 97.2498 986.801 138.53C977.421 183.45 866.49 194.14 726.041 207.67C527.081 226.85 279.461 250.71 221.021 386C204.011 425.37 204.151 472.82 221.431 527.04C240.411 586.61 280.691 656.38 341.161 734.42C401.421 812.18 442.971 888.7 464.661 961.86C484.641 1029.25 488.361 1095.78 475.691 1159.6C423.961 1420.25 109.651 1600.11 -119.849 1731.44C-266.699 1815.47 -382.689 1881.85 -377.319 1938.02C-374.569 1966.83 -339.619 1992.31 -270.469 2015.92L-271.199 2018.07V2018.06Z" fill="#181818"/>
<path d="M-293.65 2044.31C-361.62 2021.45 -396.2 1995.95 -399.38 1966.34C-405.66 1907.81 -288.79 1838.02 -140.82 1749.66C88.9504 1612.44 403.64 1424.51 456.12 1158.43C482.37 1025.34 439.73 883.18 329.39 735.89C270.79 657.67 231.98 587.45 214.05 527.21C197.64 472.07 198.2 423.49 215.72 382.85C275.83 243.38 521.74 215.25 719.33 192.65C852.32 177.44 967.17 164.3 976.09 119.9C984.3 79.0398 903.84 12.8298 722.89 -88.4601C548.23 -186.24 466.78 -267.84 473.88 -337.95C484.18 -439.64 682.59 -502.84 874.46 -563.95C1064.55 -624.5 1261.11 -687.11 1276.62 -786.54C1285 -840.23 1241.31 -900.28 1143.07 -970.11L1144.38 -971.96C1243.39 -901.58 1287.38 -840.82 1278.86 -786.19C1263.13 -685.37 1065.89 -622.55 875.15 -561.79C683.98 -500.89 486.29 -437.93 476.14 -337.72C469.14 -268.62 550.21 -187.73 724 -90.4501C905.93 11.3899 986.75 78.3698 978.32 120.34C969.08 166.36 858.98 178.95 719.59 194.9C522.58 217.44 277.4 245.48 217.8 383.74C200.5 423.89 199.97 471.94 216.22 526.56C234.07 586.55 272.76 656.52 331.2 734.53C441.94 882.36 484.72 1025.13 458.34 1158.87C405.66 1425.95 90.4804 1614.18 -139.66 1751.61C-286.93 1839.56 -403.25 1909.02 -397.12 1966.1C-394.04 1994.74 -359.96 2019.62 -292.92 2042.16L-293.64 2044.31H-293.65Z" fill="#181818"/>
<path d="M-316.25 2071.25C-382.14 2049.44 -415.88 2024.55 -419.38 1995.15C-426.45 1935.75 -309.21 1862.78 -160.76 1770.41C69.7504 1626.96 385.44 1430.5 438.99 1157.86C465.29 1023.94 425.09 882.04 319.51 736.11C262.92 657.89 225.7 587.45 208.9 526.76C193.52 471.21 194.75 422.04 212.57 380.62C273.86 238.13 517.43 205.79 713.13 179.8C845.19 162.26 959.23 147.12 968.01 101.57C976.02 60.0197 897.55 -5.64038 721.05 -105.06C551.45 -200.59 472.2 -281.39 478.74 -352.08C488.38 -456.27 686.51 -523.77 878.1 -589.05C1067.76 -653.67 1263.87 -720.48 1279.08 -822.33C1287.16 -876.47 1244.87 -936.12 1149.79 -1004.7L1151.12 -1006.54C1246.96 -937.42 1289.55 -877.05 1281.33 -821.99C1265.92 -718.77 1069.14 -651.73 878.84 -586.9C687.92 -521.86 490.51 -454.6 481 -351.87C474.55 -282.17 553.43 -202.09 722.16 -107.04C899.63 -7.07031 978.46 59.3497 970.23 102C961.14 149.15 851.82 163.67 713.41 182.05C518.27 207.97 275.42 240.22 214.64 381.52C197.03 422.46 195.83 471.12 211.07 526.16C227.8 586.59 264.9 656.78 321.34 734.79C427.31 881.26 467.64 1023.75 441.22 1158.31C387.49 1431.93 71.3104 1628.69 -159.56 1772.35C-307.32 1864.3 -424.02 1936.93 -417.12 1994.89C-413.73 2023.32 -380.51 2047.6 -315.54 2069.1L-316.25 2071.26V2071.25Z" fill="#181818"/>
<path d="M-338.98 2098.88C-402.84 2078.11 -435.73 2053.84 -439.55 2024.68C-447.43 1964.43 -329.76 1888.23 -180.77 1791.75C50.5703 1641.94 367.39 1436.77 422.1 1157.46C448.48 1022.75 410.68 881.11 309.75 736.48C255.14 658.23 219.5 587.55 203.81 526.4C189.45 470.42 191.35 420.64 209.47 378.43C271.96 232.86 513.28 196.27 707.18 166.88C838.37 146.99 951.68 129.81 960.31 83.0798C968.11 40.8398 891.59 -24.2801 719.49 -121.85C554.89 -215.16 477.79 -295.14 483.76 -366.36C492.72 -473.1 690.66 -544.99 882.09 -614.51C1071.41 -683.27 1267.18 -754.36 1282.08 -858.68C1289.87 -913.23 1248.95 -972.49 1156.98 -1039.83L1158.32 -1041.66C1251.03 -973.78 1292.25 -913.82 1284.33 -858.36C1269.24 -752.69 1072.82 -681.36 882.87 -612.38C692.11 -543.1 494.86 -471.47 486.03 -366.18C480.14 -295.93 556.87 -216.66 720.61 -123.83C893.67 -25.7101 970.54 40.1699 962.54 83.4899C953.62 131.81 845.02 148.27 707.52 169.12C514.17 198.43 273.55 234.92 211.55 379.33C193.63 421.07 191.76 470.36 206 525.84C221.63 586.73 257.16 657.16 311.61 735.19C412.91 880.34 450.84 1022.57 424.33 1157.91C369.44 1438.17 52.1503 1643.64 -179.53 1793.67C-327.84 1889.71 -444.98 1965.57 -437.29 2024.4C-433.6 2052.6 -401.21 2076.26 -338.27 2096.73L-338.97 2098.89L-338.98 2098.88Z" fill="#181818"/>
<path d="M-361.86 2127.25C-423.72 2107.48 -455.79 2083.84 -459.9 2054.96C-468.6 1993.89 -350.45 1914.37 -200.86 1813.7C134.96 1587.7 642.44 1246.18 300.09 737.02C247.44 658.72 213.35 587.77 198.77 526.13C185.42 469.71 187.99 419.3 206.42 376.29C270.15 227.56 509.32 186.71 701.5 153.89C831.9 131.62 944.52 112.38 952.98 64.4396C960.56 21.5195 885.95 -43.0703 718.19 -138.82C558.54 -229.94 483.55 -309.09 488.95 -380.79C497.19 -490.14 695.07 -566.51 886.43 -640.37C1075.51 -713.35 1271.03 -788.81 1285.6 -895.64C1293.09 -950.56 1253.51 -1009.4 1164.61 -1075.53L1165.96 -1077.35C1255.59 -1010.69 1295.46 -951.15 1287.85 -895.34C1273.1 -787.18 1076.94 -711.47 887.24 -638.26C696.53 -564.66 499.33 -488.55 491.2 -380.62C485.87 -309.88 560.49 -231.43 719.3 -140.79C888.01 -44.5004 962.97 20.8396 955.2 64.8396C946.46 114.35 838.52 132.79 701.87 156.13C510.23 188.86 271.74 229.6 208.5 377.19C169.83 467.43 200.41 584.71 301.96 735.76C645.58 1246.8 136.96 1589.09 -199.61 1815.59C-348.54 1915.82 -466.18 1994.98 -457.67 2054.64C-453.69 2082.57 -422.13 2105.61 -361.18 2125.09L-361.87 2127.25H-361.86Z" fill="#181818"/>
<path d="M-384.919 2156.32C-444.829 2137.54 -476.089 2114.52 -480.489 2085.95C-490.029 2024.09 -371.33 1941.18 -221.07 1836.23C114.18 1602.06 620.81 1248.19 290.54 737.73C239.83 659.35 207.28 588.11 193.79 525.97C181.44 469.09 184.69 418.03 203.43 374.21C268.43 222.25 505.55 177.11 696.08 140.84C825.75 116.15 937.74 94.8298 946.021 45.6399C953.36 2.04993 880.63 -62.0101 717.161 -155.97C562.37 -244.93 489.47 -323.24 494.29 -395.36C501.77 -507.37 699.69 -588.33 891.09 -666.63C1080.03 -743.92 1275.4 -823.84 1289.64 -933.24C1296.83 -988.5 1258.58 -1046.92 1172.69 -1111.84L1174.06 -1113.65C1260.66 -1048.2 1299.2 -989.09 1291.89 -932.95C1277.48 -822.24 1081.48 -742.07 891.94 -664.53C701.18 -586.5 503.92 -505.81 496.54 -395.21C491.79 -324.04 564.321 -246.43 718.281 -157.94C882.691 -63.4501 955.76 1.35986 948.25 46.0199C939.71 96.7699 832.38 117.2 696.5 143.07C506.5 179.24 270.041 224.26 205.51 375.1C166.17 467.07 194.6 585.29 292.43 736.49C623.891 1248.8 116.18 1603.43 -219.79 1838.09C-369.41 1942.6 -487.589 2025.15 -478.269 2085.61C-474.009 2113.24 -443.259 2135.66 -384.259 2154.16L-384.939 2156.32H-384.919Z" fill="#181818"/>
<path d="M-408.119 2186.14C-466.11 2168.32 -496.58 2145.93 -501.26 2117.7C-511.64 2055.08 -392.36 1968.71 -241.35 1859.37C93.4604 1616.94 599.44 1250.58 281.12 738.59C232.32 660.11 201.301 588.55 188.901 525.88C177.551 468.52 181.471 416.8 200.531 372.15C266.831 216.89 502 167.42 690.96 127.68C819.97 100.54 931.391 77.1097 939.47 26.6298C946.55 -17.6202 875.68 -81.1702 716.44 -173.35C566.45 -260.18 495.601 -337.62 499.831 -410.11C506.521 -524.82 704.6 -610.48 896.151 -693.31C1085.03 -774.99 1280.34 -859.45 1294.25 -971.45C1301.15 -1027 1264.19 -1084.98 1181.27 -1148.7L1182.65 -1150.5C1266.26 -1086.25 1303.5 -1027.58 1296.5 -971.17C1282.43 -857.88 1086.52 -773.16 897.051 -691.23C706.13 -608.67 508.71 -523.3 502.1 -409.99C497.92 -338.44 568.41 -261.68 717.58 -175.32C877.75 -82.6002 948.97 -18.3103 941.72 26.9897C933.401 79.0098 826.621 101.47 691.431 129.9C502.981 169.54 268.46 218.87 202.62 373.04C162.59 466.78 188.9 585.96 283.05 737.38C602.49 1251.17 95.4805 1618.28 -240.02 1861.2C-390.4 1970.08 -509.17 2056.09 -499.02 2117.32C-494.49 2144.62 -464.539 2166.42 -407.449 2183.97L-408.119 2186.14Z" fill="#181818"/>
<path d="M-431.52 2216.7C-487.64 2199.82 -517.32 2178.06 -522.27 2150.19C-533.51 2086.85 -413.59 1996.94 -261.77 1883.12C72.7504 1632.32 578.271 1253.31 271.77 739.59C224.87 660.98 195.36 589.07 184.04 525.87C173.69 468.01 178.27 415.62 197.67 370.13C265.31 211.5 498.63 157.67 686.09 114.42C819.81 83.5698 925.431 59.2098 933.291 7.40979C940.11 -37.4902 871.061 -100.52 715.99 -190.96C570.73 -275.68 501.88 -352.25 505.531 -425.04C508.171 -477.82 549.791 -529.68 632.76 -583.57C706.551 -631.5 805.671 -676.71 901.531 -720.43C1090.45 -806.6 1285.8 -895.7 1299.37 -1010.34C1305.98 -1066.14 1270.29 -1123.67 1190.29 -1186.21L1191.69 -1188C1272.37 -1124.93 1308.33 -1066.72 1301.63 -1010.07C1287.91 -894.16 1091.97 -804.79 902.48 -718.36C711.301 -631.16 513.621 -541 507.811 -424.92C504.211 -353.06 572.681 -277.17 717.151 -192.92C873.12 -101.95 942.521 -38.1902 935.551 7.74976C927.461 61.0697 821.171 85.5897 686.62 116.63C499.651 159.76 266.97 213.44 199.77 371.02C159.03 466.55 183.23 586.73 273.73 738.42C581.28 1253.9 74.7704 1633.65 -260.4 1884.93C-411.6 1998.29 -531.03 2087.83 -520.03 2149.79C-515.25 2176.73 -486.08 2197.91 -430.86 2214.52L-431.51 2216.7H-431.52Z" fill="#181818"/>
</g>
</g>
</g>
</svg>
